<svg width="150" height="150" viewBox="0 0 150 150" fill="none" xmlns="http://www.w3.org/2000/svg">
<g opacity="0.3">
<path d="M114.283 73.5736C119.459 87.6443 117.428 100.659 109.125 112.839C107.063 115.864 104.72 118.606 101.426 120.373C100.578 120.827 100.458 121.475 100.654 122.403C102.286 130.116 103.869 137.84 105.464 145.561C105.879 147.573 105.546 147.983 103.462 147.984C91.269 147.987 79.0756 147.986 66.8822 147.982C64.796 147.981 64.6534 147.809 64.609 145.752C64.5266 141.927 64.8213 138.096 64.3894 134.276C64.2043 132.638 63.9814 132.517 62.2853 132.627C58.3229 132.884 54.3908 133.573 50.4034 133.467C50.202 133.462 50.0002 133.47 49.7988 133.464C46.0287 133.36 44.7401 132.086 45.0092 128.351C45.1943 125.781 45.4811 123.249 44.6637 120.731C44.3155 119.659 43.8815 118.731 42.9603 117.97C41.7949 117.006 41.1915 115.758 42.1574 114.25C42.3515 113.947 42.528 113.59 42.2261 113.277C40.4139 111.401 40.9263 109.547 42.3988 107.664C41.4703 106.923 40.3893 107.179 39.4627 106.907C38.5935 106.652 37.7061 106.464 36.8971 106.047C35.0699 105.106 34.4356 103.603 35.0813 101.643C36.0732 98.632 37.9681 96.1185 39.7057 93.5331C41.0529 91.5285 42.5323 89.6095 44.0155 87.7011C44.5865 86.9665 44.7718 86.3764 44.164 85.5637C43.3848 84.5218 43.4978 83.3408 43.7132 82.0992C44.3576 78.3853 45.0933 74.6997 46.0689 71.0531C48.3264 62.6144 53.7433 57.2322 61.8493 54.3195C68.6757 51.8666 75.726 50.7436 82.9217 51.3847C97.5551 52.6886 108.337 59.6693 114.283 73.5736ZM45.5704 114.863C45.2714 115.249 44.5883 115.185 44.4309 115.947C45.8824 116.921 46.4899 118.489 46.9909 120.152C47.825 122.922 47.7136 125.729 47.3915 128.534C47.2353 129.894 47.6247 130.63 49.0201 130.888C50.3246 131.128 51.5986 131.137 52.9186 131.02C56.4744 130.706 60.0371 130.433 63.6028 130.282C65.6164 130.198 66.2376 130.861 66.6972 132.84C66.8705 133.586 66.9319 134.328 66.9317 135.086C66.9312 137.908 66.933 140.73 66.9366 143.553C66.9393 145.624 66.9684 145.661 69.0517 145.661C79.7361 145.665 90.4206 145.666 101.105 145.657C101.643 145.656 102.216 145.802 102.741 145.425C102.865 144.779 102.686 144.154 102.555 143.518C101.022 136.087 99.5068 128.652 97.9583 121.225C97.6758 119.87 98.0682 119.034 99.4032 118.53C101.27 117.825 102.834 116.642 104.164 115.149C110.974 107.509 114.533 98.6207 114.611 88.3413C114.676 79.7883 112.092 72.1177 106.662 65.5834C99.9727 57.532 90.9876 53.9924 80.7153 53.6736C74.5894 53.4835 68.6067 54.5999 62.7918 56.606C55.3315 59.1797 50.4152 64.0702 48.4281 71.8211C47.6161 74.9884 46.9352 78.1746 46.3006 81.3792C45.9851 82.9727 46.0565 84.358 47.1158 85.6331C47.6395 86.2636 47.5752 86.9493 47.1399 87.5904C46.7445 88.1728 46.2907 88.7153 45.8678 89.2792C42.9658 93.1486 40.01 96.9833 37.8599 101.35C36.9263 103.247 37.1674 103.715 39.2258 104.364C40.6857 104.824 42.2145 104.758 43.6937 105.039C45.3948 105.363 45.8549 106.277 45.1605 107.872C45.0205 108.194 44.8772 108.536 44.6504 108.794C43.1609 110.488 43.307 111.207 45.1337 112.399C45.9646 112.941 46.4176 113.706 45.5704 114.863Z" fill="#2D274B"/>
<path d="M75.7801 18.0018C70.6244 22.5622 70.9236 28.2004 76.4434 32.3054C76.6807 32.4818 77.0215 32.6891 77.0661 32.9283C77.5033 35.2712 77.9445 37.6201 77.7298 40.3072C76.5515 39.2407 76.6164 37.9897 76.5108 36.9524C76.2936 34.8194 75.3893 33.3493 73.7165 31.9541C70.3364 29.1349 69.3056 25.3891 70.7972 21.199C72.2453 17.1309 75.2412 14.687 79.5605 14.3904C83.5697 14.1152 87.0176 15.5939 89.3145 19.0355C91.4928 22.2996 91.6619 25.8245 90.0723 29.3953C89.4005 30.9044 88.2395 32.0949 86.8413 32.9085C85.6406 33.6071 85.2229 34.5596 85.0532 35.8272C84.8888 37.0554 84.7931 38.3132 84.3053 39.4763C84.1677 39.4766 84.0301 39.4768 83.8926 39.4771C83.9582 37.9834 84.0336 36.4901 84.0865 34.9959C84.1356 33.6076 84.723 32.6673 85.8892 31.784C89.573 28.9938 90.2782 23.8506 87.6571 20.2012C84.9343 16.4104 79.7546 15.4152 75.7801 18.0018Z" fill="#2D274B"/>
<path d="M81.4581 26.1677C82.2377 25.8985 82.2222 25.1738 82.5696 24.6997C83.1831 23.8621 83.9291 23.3299 85.0086 23.609C85.7964 23.8127 86.3963 24.318 86.4677 25.1586C86.5629 26.2772 85.8576 27.0513 84.8933 27.2787C83.3849 27.6343 82.9225 28.5243 82.8201 29.9496C82.644 32.4034 82.3274 34.8473 82.0582 37.2941C82.0182 37.6574 82.2199 38.0995 81.7664 38.3689C81.3011 38.1446 81.3361 37.6999 81.3321 37.3219C81.3039 34.6059 81.0923 31.8864 81.4532 29.1759C81.5049 28.7877 81.6741 28.352 81.2457 28.0794C81.1063 27.9908 80.8371 27.9901 80.6818 28.0639C80.1561 28.3139 80.2406 28.8079 80.3136 29.2523C80.6669 31.4052 80.519 33.5722 80.5011 35.7341C80.495 36.4703 80.4969 37.237 79.9745 37.8876C79.2684 37.4078 79.4695 36.6883 79.4708 36.0778C79.4755 33.9082 79.2057 31.768 78.9497 29.6204C78.8184 28.5194 78.4628 27.9302 77.236 27.7952C76.0841 27.6684 75.1194 27.0188 75.1472 25.633C75.1683 24.5816 75.8201 23.9336 76.788 23.7322C77.8754 23.506 78.857 23.8783 79.2915 24.9403C79.7005 25.9395 80.2826 26.3927 81.4581 26.1677Z" fill="#2D274B"/>
<path d="M82.5316 45.4175C80.5782 45.7402 78.7333 46.5559 76.8737 45.358C78.6 43.7763 82.9781 43.2375 84.676 44.39C84.2993 45.3318 83.2948 45.0179 82.5316 45.4175Z" fill="#2D274B"/>
<path d="M77.7611 41.3621C80.0681 40.8834 82.2298 39.7735 84.5814 40.9327C83.2982 42.5143 78.7315 43.1231 76.9562 42.0293C76.9435 41.5589 77.3468 41.5279 77.7611 41.3621Z" fill="#2D274B"/>
<path d="M75.0776 10.8879C75.4189 11.6628 75.8699 12.3076 75.5029 13.0993C73.8676 12.6757 72.298 10.0688 72.5947 8.12817C73.8715 8.6374 74.3425 9.81551 75.0776 10.8879Z" fill="#2D274B"/>
<path d="M93.303 12.8121C93.7351 12.7032 94.0609 12.7074 94.0619 13.1366C94.0644 14.1659 91.8472 16.3007 90.3922 16.4974C91.051 14.9468 91.8114 13.678 93.303 12.8121Z" fill="#2D274B"/>
<path d="M65.8348 15.7197C67.3768 16.2651 68.9729 16.6246 69.681 18.3767C67.6094 18.5011 65.6798 17.152 65.8348 15.7197Z" fill="#2D274B"/>
<path d="M84.1257 8.25903C84.669 10.164 84.2697 11.6952 83.1241 12.5824C82.451 10.9914 82.8178 9.18573 84.1257 8.25903Z" fill="#2D274B"/>
<path d="M104.734 94.1736C104.434 95.2006 104.155 96.1142 103.916 97.0381C102.98 100.662 100.7 102.62 96.9847 102.893C96.038 102.962 95.0885 103.114 94.1249 102.947C93.015 102.755 92.575 103.276 92.6185 104.394C92.6713 105.749 92.698 107.11 92.334 108.448C91.7905 110.446 90.4006 111.805 88.6534 111.977C86.7953 112.16 85.2525 111.234 84.3452 109.312C83.7221 107.992 83.1196 106.657 82.606 105.292C81.1463 101.412 78.3527 98.7606 74.8653 96.7249C73.641 96.0102 72.3366 95.7827 70.9384 96.0446C67.8676 96.6197 65.2212 95.447 63.6707 92.7153C63.1324 91.7671 62.6074 91.3822 61.4182 91.514C58.071 91.8848 54.6773 89.5248 53.802 86.3274C53.4595 85.0762 52.8651 84.0177 52.0711 83.0172C49.887 80.2655 49.7858 76.5677 51.9484 73.7977C52.7643 72.7527 53.2329 71.6739 53.3985 70.4021C53.8047 67.2811 55.6798 65.4104 58.6105 64.6325C60.2786 64.1897 61.6104 63.4826 62.7632 62.1344C64.2571 60.3872 66.4818 60.0035 68.659 59.8143C69.8505 59.7108 71.076 59.636 72.2637 59.9829C72.8579 60.1564 73.351 59.9968 73.7513 59.5229C76.2494 56.5651 83.1358 56.8441 86.1395 59.5768C86.8923 60.2617 87.5503 60.4584 88.5678 60.2291C92.6399 59.3114 95.9725 60.7631 98.0828 64.2906C98.5286 65.0356 99.0328 65.441 99.9482 65.5824C102.751 66.0152 105.462 67.1723 106.59 69.7718C107.644 72.2013 109.012 74.3636 110.273 76.6402C111.786 79.3726 111.689 82.3719 109.707 85.0454C109.174 85.7646 108.956 86.5216 108.926 87.4214C108.862 89.3372 108.156 90.9626 106.382 91.9312C105.509 92.4079 105.238 93.301 104.734 94.1736ZM102.125 74.34C102.411 73.4368 103.254 73.3748 103.959 73.2429C105.335 72.9853 105.33 72.1753 104.747 71.285C103.629 69.5771 102.036 68.5001 100.004 68.0896C98.441 67.774 96.9504 67.6562 95.6736 69.0206C96.2084 69.718 96.692 70.2959 97.1182 70.9134C99.41 74.2345 98.0949 78.4014 94.3394 79.7381C93.7571 79.9454 93.2162 80.1996 92.8996 80.7655C91.1204 83.9456 88.3718 84.7102 85.0407 83.825C84.1237 83.5813 83.7135 83.8499 83.2226 84.5913C81.8208 86.7085 79.6992 87.5664 77.2445 87.4517C75.4258 87.3668 73.8354 86.5867 72.668 85.1252C72.2744 84.6324 72.0309 84.0533 72.5865 83.4976C73.0978 82.9862 73.6695 83.0413 74.2327 83.4218C74.4826 83.5907 74.7096 83.7931 74.9555 83.9685C77.5784 85.8398 80.5007 85.0355 81.7921 82.0888C82.6708 80.0837 82.923 79.9927 84.7641 81.0164C87.2528 82.4003 89.5796 81.7941 90.8834 79.3054C91.483 78.1609 92.309 77.5286 93.5641 77.3982C94.5749 77.2933 95.1815 76.7374 95.5334 75.7819C96.0181 74.4658 95.9005 72.956 94.9715 72.2425C92.8637 70.6236 91.016 68.5533 88.5639 67.499C86.6503 66.6764 84.8414 67.5698 83.3316 68.9559C82.7507 69.4892 82.0644 69.9172 81.3741 69.1098C80.7919 68.4288 81.0274 67.7679 81.6406 67.2633C83.343 65.8623 83.5506 63.5397 85.0807 62.1088C83.2739 59.9794 79.8426 59.2323 77.0292 60.237C75.3646 60.8315 75.2507 61.2634 76.4099 62.5944C76.9527 63.2177 77.5682 63.8581 76.7663 64.6748C75.9433 65.5132 75.218 64.9412 74.7364 64.2894C72.4999 61.2621 67.7975 61.8808 65.1655 63.2762C64.2253 63.7747 63.6427 64.5772 63.3415 65.5846C63.1249 66.3092 63.0095 67.0464 62.9725 67.8097C62.9326 68.6329 62.7414 69.5587 61.7037 69.5546C60.6459 69.5504 60.531 68.6352 60.4964 67.7932C60.4826 67.4561 60.6703 67.0883 60.3265 66.8094C56.14 67.2442 54.3933 71.0852 56.8421 74.4733C56.9305 74.5956 57.0281 74.7115 57.1247 74.8278C57.6639 75.4769 57.9201 76.1921 57.2084 76.8327C56.4173 77.5447 55.8329 76.8768 55.2711 76.3747C55.0465 76.174 54.8604 75.9308 54.6413 75.7234C54.2776 75.379 53.9556 75.4306 53.6079 75.7946C52.2299 77.2375 52.7195 80.6247 54.5036 81.6165C54.6598 81.4376 54.814 81.2419 54.9879 81.0655C55.6741 80.3689 56.1505 78.8696 57.4233 79.7823C58.6801 80.6837 57.5378 81.6391 56.9903 82.4802C56.0869 83.8681 55.5564 85.2839 56.618 86.8258C57.6033 88.2569 59.0662 88.8684 60.7172 89.095C61.404 89.1892 62.0589 89.0353 62.3693 88.3249C62.6964 87.5764 62.2257 87.1299 61.6974 86.6684C58.7346 84.0802 58.3916 80.9573 60.7242 77.7044C61.1296 77.1391 61.3478 76.5975 61.2778 75.8951C60.9636 72.7403 62.4713 70.5987 65.5816 69.8121C66.2848 69.6343 66.8738 69.4047 67.3845 68.8347C69.236 66.7683 72.7501 66.3431 75.1464 67.8082C75.8267 68.2242 76.2708 68.7559 75.9203 69.5399C75.5442 70.3813 74.8164 70.2594 74.1055 69.9767C73.8717 69.8837 73.6378 69.7905 73.4017 69.7034C71.4901 68.9986 70.2065 69.3429 69.0837 71.0223C68.5479 71.8238 67.9744 72.1487 66.9845 72.1322C64.9887 72.0988 63.2965 73.6131 63.6946 75.2298C64.1278 76.9893 63.5507 78.1963 62.5169 79.4887C61.4187 80.8617 61.4672 82.8821 62.4187 83.9781C62.7153 84.3197 63.1741 84.8378 63.5293 84.4419C64.3075 83.5746 65.5781 83.2367 65.6429 81.5869C65.8251 76.9448 70.0065 73.4236 74.0541 74.4287C75.2733 74.7315 75.8015 74.4476 76.5415 73.5851C79.3694 70.2894 85.4218 70.4968 88.0582 73.8969C88.5914 74.5845 89.006 75.3071 88.1361 75.9932C87.3189 76.6378 86.7653 76.0412 86.2273 75.4575C83.553 72.5555 79.1777 73.1583 77.4711 76.6561C76.7294 78.1761 76.1109 78.4258 74.7979 77.4186C73.5148 76.4344 72.3205 76.5537 71.0075 77.2111C69.0207 78.2059 67.8656 80.1624 68.1974 82.5852C68.3961 84.0355 68.1784 84.9354 66.6429 85.2667C66.1989 85.3625 65.8704 85.6987 65.6073 86.0981C64.3973 87.9347 64.8639 91.0571 66.5952 92.59C68.3661 94.158 70.9142 94.1093 72.7668 92.4297C73.399 91.8566 73.9355 91.1792 74.5429 90.5768C74.9974 90.126 75.5452 89.8155 76.1566 90.2609C76.8169 90.742 76.7267 91.4071 76.366 92.0114C75.9855 92.649 75.518 93.2346 75.0975 93.8301C76.028 94.7658 77.3295 95.2679 79.101 95.4121C82.1 95.6564 84.3372 92.8249 83.3794 90.0272C83.1693 89.4134 82.9838 88.7628 82.9551 88.1216C82.9101 87.1137 83.5366 86.7651 84.4443 87.0383C85.0977 87.2351 85.2303 87.8805 85.4259 88.4625C86.42 91.4217 88.7665 93.0461 91.5604 92.7366C93.8442 92.4836 96.3774 89.6718 96.6731 86.9841C95.851 86.8221 95.0123 86.6852 94.1887 86.4861C93.4252 86.3016 92.8761 85.8697 93.0899 84.9846C93.2819 84.1896 93.8868 84.0674 94.6222 84.1542C95.5201 84.2601 96.4275 84.361 97.3291 84.3476C99.5863 84.3142 100.986 82.9821 101.202 80.739C101.24 80.3383 101.205 79.9278 101.272 79.5334C101.389 78.8476 101.652 78.2467 102.502 78.2746C103.257 78.2995 103.5 78.8355 103.628 79.4744C104.07 81.6808 103.019 84.5612 101.015 85.649C99.6695 86.3791 99.2876 87.4414 98.9306 88.7184C98.7164 89.4849 98.8897 89.8199 99.6334 90.0454C101.121 90.4965 102.644 90.5097 104.119 90.2291C105.521 89.9625 106.375 89.0278 106.446 87.4704C106.523 85.7849 106.233 84.2732 104.956 83.0505C104.414 82.5313 104.046 81.8734 104.67 81.1966C105.362 80.4467 106.057 80.8537 106.649 81.3922C107.146 81.8444 107.581 82.3644 108.141 82.9575C109.197 80.6921 108.902 78.747 107.711 76.9015C106.691 75.322 105.205 75.2997 103.568 75.7218C102.663 75.9555 102.096 75.5655 102.125 74.34ZM86.4503 97.2679C89.2357 99.5633 92.3925 100.78 96.0415 100.611C98.6469 100.491 100.585 99.2454 101.049 97.2468C99.5574 97.4818 98.1258 98.1018 96.6197 97.5565C95.1878 97.0381 93.5564 96.7795 93.6436 94.6948C91.2714 95.3412 89.058 95.2379 86.9427 94.1708C86.1833 93.7877 85.6777 93.8499 85.1915 94.6269C84.7159 95.3868 84.8317 95.9242 85.4823 96.4462C85.7567 96.6663 86.0157 96.9056 86.4503 97.2679ZM87.2444 109.284C89.1319 109.642 89.6972 109.235 90.0547 107.408C90.288 106.215 90.2916 105.02 90.3367 103.817C90.3759 102.772 90.0042 102.136 89.0283 101.719C87.026 100.865 85.1896 99.7091 83.7074 98.1062C82.748 97.0685 81.8655 97.168 80.7557 97.9429C81.8265 99.1887 82.9127 100.374 83.6059 101.826C84.3187 103.319 84.9778 104.837 85.6803 106.335C86.1234 107.28 86.264 108.374 87.2444 109.284ZM92.365 66.8156C92.8956 67.6614 93.4729 67.7213 94.1446 66.955C94.3386 66.7338 94.5984 66.5448 94.8645 66.4168C96.1518 65.7977 95.9107 65.0315 95.1268 64.1723C93.3869 62.2656 90.0227 61.7916 87.7741 63.1621C87.1969 63.5139 86.6269 63.8949 86.4287 64.6539C89.6977 64.9213 90.5411 65.2161 92.365 66.8156ZM95.5546 93.4677C95.3697 93.6783 95.0274 93.787 95.095 94.1619C98.1278 95.8709 100.819 95.4695 102.168 93.0504C101.224 92.8609 100.243 92.8145 99.3908 92.4599C97.8856 91.8339 96.6985 92.0612 95.5546 93.4677Z" fill="#2D274B"/>
</g>
</svg>
