<svg width="150" height="150" viewBox="0 0 150 150" fill="none" xmlns="http://www.w3.org/2000/svg">
<g opacity="0.3">
<path d="M141.648 101.915C141.646 106.148 141.498 110.235 141.678 114.309C141.899 119.328 138.55 122.968 132.923 123.089C131.966 123.11 131.009 123.091 130.051 123.091C93.3199 123.093 56.5883 123.094 19.8568 123.093C18.143 123.093 16.4288 123.068 14.814 122.371C11.8863 121.108 10.2926 118.847 10.2035 115.696C10.0911 111.722 10.166 107.743 10.1653 103.766C10.1617 82.8051 10.1635 61.8444 10.1513 40.8838C10.15 38.6781 9.85584 36.4573 10.4407 34.2858C11.2825 31.1601 13.4971 29.5343 16.548 28.9532C17.5778 28.757 18.6526 28.738 19.7069 28.7379C57.1438 28.7314 94.5808 28.7374 132.018 28.7381C133.481 28.7381 134.955 28.7354 136.366 29.1267C139.347 29.9535 141.61 33.0381 141.625 36.3126C141.657 43.5177 141.643 50.723 141.645 57.9282C141.647 72.5402 141.647 87.1521 141.648 101.915ZM138.708 49.6299C138.464 48.9139 137.852 49.0453 137.315 49.0424C132.124 49.0142 126.933 48.9741 121.742 48.9735C86.1581 48.969 50.5742 48.9732 14.9902 48.9748C13.1126 48.9748 13.0717 49.012 13.0713 50.9416C13.0676 70.9513 13.0653 90.961 13.064 110.971C13.0639 112.482 13.0248 113.996 13.0902 115.505C13.2004 118.05 14.8091 119.704 17.3572 119.948C18.0074 120.01 18.6665 119.99 19.3215 119.99C57.1736 119.991 95.0257 119.991 132.878 119.991C133.331 119.991 133.786 120 134.238 119.975C136.673 119.837 138.597 117.943 138.738 115.517C138.791 114.613 138.774 113.704 138.773 112.797C138.767 91.8296 138.759 70.8625 138.708 49.6299ZM28.2763 45.8717C60.2799 45.8724 92.2836 45.873 124.287 45.874C128.672 45.8741 133.057 45.8469 137.441 45.8972C138.59 45.9104 139.08 45.6072 139.031 44.3656C138.944 42.1515 139.02 39.9313 139.004 37.7139C138.975 33.4823 137.022 31.5487 132.79 31.5486C94.9905 31.548 57.1909 31.5488 19.3912 31.5498C18.8873 31.5498 18.3813 31.5298 17.8797 31.5662C15.4638 31.7413 13.3222 33.4062 13.1541 35.505C12.9049 38.6185 12.943 41.7485 13.0613 44.8734C13.0872 45.5603 13.3742 45.9108 14.0839 45.8435C18.7149 45.4044 23.3434 46.1115 28.2763 45.8717Z" fill="#2D274B"/>
<path d="M99.4873 80.1523C100.42 81.2167 101.279 82.2035 102.145 83.1836C102.849 83.9804 102.924 84.8258 102.228 85.6311C98.6758 89.7402 95.1146 93.8417 91.5265 97.9193C90.9181 98.6108 90.0949 98.7144 89.3891 98.0383C88.6259 97.3071 88.7913 96.5221 89.4459 95.7717C92.2901 92.5119 95.0701 89.1934 97.9966 86.0095C99.0863 84.8239 99.0961 84.0944 97.9895 82.912C95.3095 80.0484 92.7847 77.0396 90.2022 74.0849C89.8716 73.7067 89.5359 73.3251 89.2632 72.9057C88.7806 72.1637 88.8854 71.4416 89.5667 70.891C90.2644 70.327 90.9684 70.4229 91.5654 71.0985C93.3308 73.0966 95.0933 75.0973 96.8508 77.1024C97.7129 78.086 98.5614 79.0816 99.4873 80.1523Z" fill="#2D274B"/>
<path d="M54.8959 77.2777C56.4764 75.4441 57.9782 73.6836 59.5116 71.9511C60.2547 71.1114 60.9307 69.8975 62.3376 70.8976C63.2741 71.5633 63.0946 72.4012 61.7311 73.96C59.1152 76.9508 56.5317 79.9718 53.8436 82.8964C52.7942 84.038 52.703 84.7983 53.8295 86.0061C56.607 88.9839 59.2172 92.118 61.8902 95.1931C62.1532 95.4957 62.4215 95.8036 62.6245 96.1463C63.0763 96.909 62.9367 97.628 62.2488 98.1537C61.5989 98.6504 60.9191 98.5363 60.3471 97.9612C59.993 97.6052 59.6736 97.2143 59.3448 96.8338C56.2524 93.2564 53.1841 89.6577 50.0567 86.1112C49.0277 84.9443 49.0266 83.9698 50.0754 82.8248C51.7053 81.0452 53.2496 79.1871 54.8959 77.2777Z" fill="#2D274B"/>
<path d="M71.1464 97.4773C70.535 98.3039 69.8552 98.6882 69.026 98.0774C68.2091 97.4757 68.1973 96.6764 68.6372 95.795C72.6589 87.7378 76.6672 79.6738 80.6835 71.6139C81.0896 70.7989 81.584 70.0569 82.6572 70.6258C83.716 71.1871 83.7933 72.1247 83.3388 73.0872C82.4372 74.9964 81.4652 76.8724 80.5203 78.7611C77.4157 84.9666 74.3102 91.1716 71.1464 97.4773Z" fill="#2D274B"/>
<path d="M23.7676 34.9438C26.1851 35.2788 27.7077 36.8032 27.9069 38.98C28.1098 41.1978 26.901 43.0235 24.7589 43.7347C22.7039 44.4169 20.5761 43.6519 19.5176 41.8503C18.4134 39.971 18.7578 37.4785 20.3094 36.0156C21.2556 35.1235 22.3882 34.8389 23.7676 34.9438ZM24.7005 39.3887C24.7577 38.2984 24.272 37.5982 23.1543 37.6593C22.1718 37.713 21.6246 38.4077 21.6505 39.3822C21.6712 40.1643 22.2641 40.7255 22.9389 40.8808C23.8617 41.0932 24.3782 40.4261 24.7005 39.3887Z" fill="#2D274B"/>
<path d="M38.2232 40.2651C37.3913 42.7005 35.5336 44.0913 33.5301 43.8831C31.234 43.6445 29.4599 41.8177 29.2706 39.497C29.108 37.5043 30.4881 35.4577 32.4054 34.8481C35.6937 33.8027 38.7401 36.5684 38.2232 40.2651ZM32.4781 38.3684C31.9655 39.2577 32.2535 40.0272 32.9105 40.6676C33.4068 41.1514 34.0084 41.0714 34.5812 40.7275C35.2962 40.2982 35.426 39.6238 35.2871 38.8908C35.0505 37.6425 33.9907 37.3786 32.4781 38.3684Z" fill="#2D274B"/>
<path d="M47.9465 42.4892C46.3676 43.9865 44.6173 44.3961 42.7201 43.6212C41.094 42.9572 40.2214 41.6324 40.1263 39.8608C40.0039 37.5776 41.0548 35.8289 42.9078 35.1607C44.8539 34.4589 47.0424 35.0949 48.1833 36.6939C49.4763 38.5059 49.4199 40.5689 47.9465 42.4892ZM43.0069 39.1648C42.9938 40.2434 43.5317 40.9433 44.5954 40.9209C45.4618 40.9027 46.0618 40.318 46.158 39.3809C46.2478 38.506 45.8421 37.845 45.0157 37.6929C44.0724 37.5193 43.1962 37.7433 43.0069 39.1648Z" fill="#2D274B"/>
</g>
</svg>
