<svg width="492" height="645" viewBox="0 0 492 645" fill="none" xmlns="http://www.w3.org/2000/svg">
<g clip-path="url(#clip0_431_331)">
<rect width="387.774" height="502.185" rx="15" fill="#C2BEFF"/>
<g clip-path="url(#clip1_431_331)">
<path d="M380.741 621.559H60.718V622.479H380.741V621.559Z" fill="#2F2E41"/>
<path d="M322.178 339.79H257.62V340.709H322.178V339.79Z" fill="#E6E6E6"/>
<path d="M276.065 331.516H275.143V340.02H276.065V331.516Z" fill="#E6E6E6"/>
<path d="M304.194 331.516H303.272V340.02H304.194V331.516Z" fill="#E6E6E6"/>
<path d="M358.607 595.819H294.049V596.738H358.607V595.819Z" fill="#E6E6E6"/>
<path d="M312.494 587.545H311.572V596.048H312.494V587.545Z" fill="#E6E6E6"/>
<path d="M340.623 587.545H339.701V596.048H340.623V587.545Z" fill="#E6E6E6"/>
<path d="M488.185 554.449H423.626V555.369H488.185V554.449Z" fill="#E6E6E6"/>
<path d="M442.072 546.176H441.149V554.679H442.072V546.176Z" fill="#E6E6E6"/>
<path d="M470.2 546.176H469.278V554.679H470.2V546.176Z" fill="#E6E6E6"/>
<path d="M447.144 440.914H446.222V449.418H447.144V440.914Z" fill="#E6E6E6"/>
<path d="M333.706 499.291H269.148V500.21H333.706V499.291Z" fill="#E6E6E6"/>
<path d="M287.593 491.017H286.671V499.521H287.593V491.017Z" fill="#E6E6E6"/>
<path d="M315.722 491.017H314.8V499.521H315.722V491.017Z" fill="#E6E6E6"/>
<path d="M245.631 408.279H181.073V409.198H245.631V408.279Z" fill="#E6E6E6"/>
<path d="M199.518 400.005H198.595V408.509H199.518V400.005Z" fill="#E6E6E6"/>
<path d="M227.647 400.005H226.724V408.509H227.647V400.005Z" fill="#E6E6E6"/>
<path d="M122.97 508.484H58.4124V509.403H122.97V508.484Z" fill="#E6E6E6"/>
<path d="M76.8576 500.21H75.9353V508.714H76.8576V500.21Z" fill="#E6E6E6"/>
<path d="M104.986 500.21H104.064V508.714H104.986V500.21Z" fill="#E6E6E6"/>
<path d="M392.27 480.445C447.025 480.445 491.412 436.199 491.412 381.619C491.412 327.039 447.025 282.793 392.27 282.793C337.515 282.793 293.127 327.039 293.127 381.619C293.127 436.199 337.515 480.445 392.27 480.445Z" fill="#2D274B"/>
<path d="M88.8127 433.453L87.9154 433.668L110.27 526.583L111.167 526.368L88.8127 433.453Z" fill="#2F2E41"/>
<path d="M189.12 496.763C189.12 496.763 208.027 504.577 202.032 509.173C196.037 513.77 183.587 503.657 184.048 502.278C184.509 500.9 182.203 497.682 182.203 497.682L189.12 496.763Z" fill="#FFB9B9"/>
<path d="M172.52 435.169L178.514 440.685L179.898 456.772L184.509 473.78C184.509 473.78 192.348 489.868 190.965 493.085C189.581 496.303 192.348 497.222 192.348 497.222L181.742 501.359C181.742 501.359 170.214 488.489 170.214 485.731C170.214 482.973 172.52 435.169 172.52 435.169Z" fill="#575A88"/>
<path d="M172.52 435.169L178.514 440.685L179.898 456.772L184.509 473.78C184.509 473.78 192.348 489.868 190.965 493.085C189.581 496.303 192.348 497.222 192.348 497.222L181.742 501.359C181.742 501.359 170.214 488.489 170.214 485.731C170.214 482.973 172.52 435.169 172.52 435.169Z" fill="#E2E3E4"/>
<path d="M229.239 600.645C229.239 600.645 226.933 611.217 226.472 612.136C226.011 613.056 235.233 616.273 235.233 616.273L246.3 608.459C246.3 608.459 241.689 598.347 241.689 596.508L229.239 600.645Z" fill="#E2E3E4"/>
<path d="M168.831 497.682L172.058 501.359C172.058 501.359 238.922 509.633 240.306 522.503C241.689 535.374 251.373 596.048 245.839 597.887C240.306 599.726 226.011 606.62 226.011 602.943C226.011 599.266 216.788 548.704 218.632 539.511C218.632 539.511 138.857 529.398 137.013 517.907C135.168 506.415 138.857 501.359 138.857 501.359L168.831 497.682Z" fill="#2F2E41"/>
<path d="M168.831 497.682L172.058 501.359C172.058 501.359 238.922 509.633 240.306 522.503C241.689 535.374 251.373 596.048 245.839 597.887C240.306 599.726 226.011 606.62 226.011 602.943C226.011 599.266 216.788 548.704 218.632 539.511C218.632 539.511 138.857 529.398 137.013 517.907C135.168 506.415 138.857 501.359 138.857 501.359L168.831 497.682Z" fill="#090814"/>
<path d="M228.316 611.217C228.316 611.217 226.472 607.08 225.55 608.459C224.627 609.838 221.399 625.926 224.627 625.926C227.855 625.926 257.367 633.28 261.518 632.361C265.668 631.442 273.507 632.821 272.585 628.224C271.662 623.628 267.051 623.168 267.051 623.168C267.051 623.168 249.989 613.056 249.067 607.999C248.145 602.943 243.072 605.701 243.072 605.701V608.919C243.072 608.919 233.389 616.273 228.316 611.217Z" fill="#090814"/>
<path d="M140.702 400.235C140.702 400.235 143.93 415.863 137.013 417.242C130.096 418.621 145.774 427.814 145.774 427.814L155.919 433.33L163.297 425.976C163.297 425.976 156.611 412.416 161.683 402.303C166.756 392.191 140.702 400.235 140.702 400.235Z" fill="#9F616A"/>
<path d="M163.297 425.976L155.919 433.33L145.774 427.814C145.774 427.814 130.096 418.621 137.013 417.242C141.463 416.355 141.712 409.57 141.329 404.845C141.204 403.298 140.995 401.759 140.702 400.235C140.702 400.235 166.756 392.191 161.683 402.303C160.912 403.865 160.378 405.532 160.097 407.249C158.543 416.337 163.297 425.976 163.297 425.976Z" fill="#FFB9B9"/>
<path d="M189.12 613.975V624.547H206.643L208.027 620.41L206.182 609.378L189.12 613.975Z" fill="#E2E3E4"/>
<path d="M116.723 506.875C116.723 506.875 116.723 533.995 127.79 534.914C138.857 535.833 178.514 540.89 178.514 540.89C178.514 540.89 180.82 585.936 184.97 600.645C189.12 615.354 185.431 616.273 189.12 617.193C192.809 618.112 208.488 614.894 208.027 611.677C207.565 608.459 205.721 527.1 205.721 527.1C205.721 527.1 209.871 509.633 154.536 501.359L116.723 506.875Z" fill="#090814"/>
<path d="M190.504 621.329C190.504 621.329 187.737 615.354 187.276 617.193C186.815 619.031 181.281 635.119 186.815 636.498C192.348 637.877 209.871 645.232 221.399 644.772C232.927 644.312 234.311 643.853 234.311 643.853C234.311 643.853 237.539 639.256 233.389 636.498C229.238 633.74 212.177 617.652 211.254 615.814C210.332 613.975 203.415 612.596 203.415 615.814C203.415 619.031 193.732 625.466 190.504 621.329Z" fill="#090814"/>
<path opacity="0.1" d="M161.683 402.303C160.912 403.865 160.378 405.532 160.097 407.249C157.8 408.633 156.265 408.279 153.383 408.279C149.108 408.279 147.384 402.832 144.621 400.005C144.405 397.38 140.702 400.235 140.702 400.235C140.702 400.235 166.756 392.191 161.683 402.303Z" fill="black"/>
<path d="M152.23 408.049C160.634 408.049 167.447 401.258 167.447 392.88C167.447 384.503 160.634 377.712 152.23 377.712C143.826 377.712 137.013 384.503 137.013 392.88C137.013 401.258 143.826 408.049 152.23 408.049Z" fill="#FFB9B9"/>
<path d="M178.514 440.685C178.514 440.685 176.209 457.232 174.825 463.208C173.442 469.183 171.597 496.763 170.675 500.44C169.753 504.117 164.219 505.036 153.152 503.657C152.457 503.57 151.759 503.518 151.059 503.501C144.243 503.285 136.446 505.827 129.229 507.822C125.079 508.971 121.118 509.936 117.645 510.093C112.388 510.332 110.848 504.522 111.028 498.234C111.199 492.382 112.863 486.108 114.417 483.892C117.216 479.902 114.464 444.081 115.496 432.268V432.264C115.653 430.462 115.898 429.221 116.262 428.733C119.029 425.056 137.013 415.863 139.028 416.235C141.043 416.608 158.225 427.355 158.225 427.355C162.375 427.355 162.241 422.868 162.241 422.868C162.241 422.868 165.142 428.274 170.675 429.653C176.209 431.032 178.514 440.685 178.514 440.685Z" fill="#E2E3E4"/>
<path d="M147.687 500.276C147.687 500.276 177.391 501.219 172.188 504.734C166.984 508.25 143.93 511.472 143.468 506.875C143.007 502.278 147.687 500.276 147.687 500.276Z" fill="#FFB9B9"/>
<path opacity="0.1" d="M151.059 503.501C151.155 505.266 146.392 509.242 144.852 511.931C143.999 513.421 137.395 511.458 129.229 507.822C122.962 505.018 116.882 501.815 111.027 498.234C111.198 492.382 112.862 486.108 114.416 483.892C117.215 479.902 114.463 444.081 115.495 432.268V432.264C115.742 432.139 115.998 432.034 116.261 431.951H121.794C140.701 440.685 119.028 478.376 119.028 478.376C119.028 478.376 147.618 501.819 150.384 502.738C150.566 502.772 150.731 502.866 150.853 503.004C150.975 503.142 151.047 503.317 151.059 503.501Z" fill="black"/>
<path d="M121.795 429.193H116.262C116.262 429.193 111.19 430.572 107.039 439.765C102.889 448.958 87.6719 477.457 101.045 488.489C114.417 499.521 143.007 512.391 144.852 509.173C146.696 505.956 153.152 500.9 150.385 499.98C147.619 499.061 119.029 475.618 119.029 475.618C119.029 475.618 140.702 437.927 121.795 429.193Z" fill="#E2E3E4"/>
<path d="M149.889 385.822C149.889 385.822 150.556 376.607 158.795 380.364C167.034 384.122 166.496 373.765 164.006 371.935C161.516 370.105 161.595 369.652 152.49 370.878C143.384 372.104 125.706 374.177 131.422 392.427C137.139 410.677 142.315 405.982 142.315 405.982C142.315 405.982 137.772 389.56 142.375 392.689L146.979 395.817L149.408 395.305L149.889 385.822Z" fill="#2F2E41"/>
<path d="M218.431 618.96L189.021 539.259L111.317 533.792L91.1179 618.907L90.2206 618.696L110.602 532.819L110.993 532.847L189.682 538.384L189.786 538.663L219.298 618.643L218.431 618.96Z" fill="#2F2E41"/>
<path d="M306.902 555.205C312.484 555.205 317.01 550.694 317.01 545.129C317.01 539.565 312.484 535.054 306.902 535.054C301.319 535.054 296.794 539.565 296.794 545.129C296.794 550.694 301.319 555.205 306.902 555.205Z" fill="#E2E3E4"/>
<path d="M277.256 622.533L276.334 622.515C276.691 612.293 277.785 602.111 279.608 592.046C283.596 570.496 290.227 556.344 299.318 549.982L299.847 550.734C278.611 565.596 277.267 621.965 277.256 622.533Z" fill="#2F2E41"/>
<path d="M288.785 622.313L287.862 622.295C287.882 621.277 288.459 597.283 297.935 590.651L298.464 591.404C289.371 597.768 288.789 622.068 288.785 622.313Z" fill="#2F2E41"/>
<path d="M305.094 550.817C307.641 550.817 309.705 548.759 309.705 546.221C309.705 543.682 307.641 541.624 305.094 541.624C302.547 541.624 300.483 543.682 300.483 546.221C300.483 548.759 302.547 550.817 305.094 550.817Z" fill="#9787F3"/>
<path d="M302.811 590.348C305.357 590.348 307.422 588.29 307.422 585.751C307.422 583.213 305.357 581.155 302.811 581.155C300.264 581.155 298.199 583.213 298.199 585.751C298.199 588.29 300.264 590.348 302.811 590.348Z" fill="#9787F3"/>
<path d="M286.635 553.573C287.502 559.089 285.243 564.026 285.243 564.026C285.243 564.026 281.579 560.015 280.713 554.497C279.846 548.98 282.105 544.044 282.105 544.044C282.105 544.044 285.768 548.055 286.635 553.573Z" fill="#2F2E41"/>
<path d="M301.708 566.973C296.408 568.785 291.139 567.428 291.139 567.428C291.139 567.428 294.463 563.133 299.763 561.321C305.062 559.509 310.331 560.866 310.331 560.866C310.331 560.866 307.007 565.159 301.708 566.973Z" fill="#2F2E41"/>
<path d="M301.878 601.982C299.48 602.733 296.925 602.843 294.471 602.301C296.029 600.323 298.128 598.836 300.515 598.02C302.902 597.204 305.474 597.093 307.923 597.701C306.319 599.631 304.234 601.107 301.878 601.982Z" fill="#2F2E41"/>
<path d="M137.603 372.71L141.013 372.082L144.447 390.615L139.006 391.617L135.947 375.109C135.897 374.843 135.901 374.57 135.958 374.306C136.014 374.041 136.122 373.791 136.276 373.568C136.43 373.345 136.626 373.155 136.854 373.008C137.082 372.86 137.336 372.759 137.603 372.71Z" fill="#9787F3"/>
<path d="M142.316 401.384C146.136 401.384 149.233 398.297 149.233 394.489C149.233 390.681 146.136 387.594 142.316 387.594C138.496 387.594 135.399 390.681 135.399 394.489C135.399 398.297 138.496 401.384 142.316 401.384Z" fill="#9787F3"/>
<path d="M142.316 398.626C144.608 398.626 146.466 396.774 146.466 394.489C146.466 392.204 144.608 390.352 142.316 390.352C140.024 390.352 138.166 392.204 138.166 394.489C138.166 396.774 140.024 398.626 142.316 398.626Z" fill="#E6E6E6"/>
<path d="M392.27 477.227C445.242 477.227 488.185 434.422 488.185 381.619C488.185 328.816 445.242 286.01 392.27 286.01C339.298 286.01 296.355 328.816 296.355 381.619C296.355 434.422 339.298 477.227 392.27 477.227Z" fill="white"/>
<path d="M142.316 395.868C143.08 395.868 143.699 395.251 143.699 394.489C143.699 393.727 143.08 393.11 142.316 393.11C141.552 393.11 140.932 393.727 140.932 394.489C140.932 395.251 141.552 395.868 142.316 395.868Z" fill="#9787F3"/>
<path d="M402.162 344.826V386.195H341.832L330.687 399.525L331.959 386.195H326.537V344.826H402.162Z" fill="#9787F3"/>
<path opacity="0.1" d="M402.162 359.075H374.955V386.195H402.162V359.075Z" fill="black"/>
<path d="M380.95 365.051H456.575V406.42H451.151L452.425 419.75L441.281 406.42H380.95V365.051Z" fill="#2D274B"/>
</g>
<g clip-path="url(#clip2_431_331)">
<path d="M341.553 32.9853H36.2214C35.7679 32.9848 35.3332 32.8047 35.0126 32.4846C34.6919 32.1645 34.5116 31.7305 34.5111 31.2777V21.2336C34.5116 20.7809 34.6919 20.3469 35.0126 20.0268C35.3332 19.7067 35.7679 19.5266 36.2214 19.5261H341.553C342.006 19.5266 342.441 19.7067 342.761 20.0268C343.082 20.3469 343.262 20.7809 343.263 21.2336V31.2777C343.262 31.7305 343.082 32.1645 342.761 32.4846C342.441 32.8047 342.006 32.9848 341.553 32.9853Z" fill="#E4E4E4"/>
<path d="M44.4364 28.19C45.7775 28.19 46.8646 27.1047 46.8646 25.7658C46.8646 24.4269 45.7775 23.3415 44.4364 23.3415C43.0954 23.3415 42.0083 24.4269 42.0083 25.7658C42.0083 27.1047 43.0954 28.19 44.4364 28.19Z" fill="white"/>
<path d="M53.6529 28.19C54.9939 28.19 56.081 27.1047 56.081 25.7658C56.081 24.4269 54.9939 23.3415 53.6529 23.3415C52.3118 23.3415 51.2247 24.4269 51.2247 25.7658C51.2247 27.1047 52.3118 28.19 53.6529 28.19Z" fill="white"/>
<path d="M62.8697 28.19C64.2107 28.19 65.2978 27.1047 65.2978 25.7658C65.2978 24.4269 64.2107 23.3415 62.8697 23.3415C61.5286 23.3415 60.4415 24.4269 60.4415 25.7658C60.4415 27.1047 61.5286 28.19 62.8697 28.19Z" fill="white"/>
<path d="M339.241 269.526H203.441C202.341 269.525 201.287 269.088 200.51 268.312C199.733 267.536 199.295 266.484 199.294 265.386V169.544C199.295 168.447 199.733 167.395 200.51 166.619C201.287 165.842 202.341 165.406 203.441 165.405H339.241C340.34 165.406 341.394 165.842 342.171 166.619C342.948 167.395 343.386 168.447 343.387 169.544V265.386C343.386 266.484 342.948 267.536 342.171 268.312C341.394 269.088 340.34 269.525 339.241 269.526Z" fill="#E6E6E6"/>
<path d="M333.587 171.049H209.096C207.996 171.05 206.942 171.487 206.164 172.263C205.387 173.04 204.949 174.092 204.948 175.19V259.74C204.949 260.838 205.387 261.891 206.164 262.667C206.942 263.444 207.996 263.88 209.096 263.882H333.587C334.686 263.88 335.74 263.443 336.517 262.667C337.295 261.891 337.731 260.838 337.732 259.74V175.19C337.731 174.093 337.295 173.04 336.517 172.264C335.74 171.487 334.686 171.05 333.587 171.049Z" fill="white"/>
<path d="M282.686 211.243C284.752 202.258 279.132 193.303 270.133 191.24C261.134 189.178 252.165 194.789 250.099 203.773C248.033 212.758 253.653 221.713 262.652 223.776C271.651 225.838 280.62 220.227 282.686 211.243Z" fill="#9E616A"/>
<path d="M314.473 248.165C313.858 245.265 312.466 242.585 310.447 240.412C308.427 238.239 305.855 236.654 303.004 235.825L302.991 235.818C302.447 235.551 301.871 235.354 301.277 235.231L281.186 231.127L277.161 226.815L260.034 227.906L258.246 232.867L238.572 241.597L238.898 241.368C238.055 241.706 237.235 242.098 236.444 242.542L236.344 242.587C235.777 242.841 235.25 243.176 234.78 243.583C229.777 247.049 226.471 252.614 226.349 258.819L225.83 263.882H317.814L314.473 248.165Z" fill="#2D274B"/>
<path d="M284.688 198.562C283.32 194.294 279.315 190.69 274.828 190.805C275.178 189.74 274.581 188.547 273.687 187.869C272.793 187.191 271.663 186.92 270.565 186.692C268.294 186.219 265.927 185.858 263.669 186.391C261.412 186.923 259.272 188.54 258.764 190.8C256.708 188.876 252.905 189.408 251.459 191.823C250.714 193.066 250.608 194.735 251.413 195.94C252.213 197.137 253.727 197.676 255.167 197.744C256.606 197.812 258.031 197.489 259.465 197.339C262.888 196.98 266.504 197.669 269.272 199.713C272.039 201.756 273.808 205.26 273.315 208.662C274.422 207.956 276.016 208.446 276.788 209.506C277.561 210.566 277.622 212.014 277.263 213.275C276.904 214.536 276.176 215.654 275.457 216.752C274.134 218.772 272.812 220.792 271.489 222.813L272.031 223.172C274.026 224.013 276.185 222.442 277.638 220.839C280.087 218.133 282.06 215.033 283.474 211.67C285.209 207.536 286.057 202.83 284.688 198.562Z" fill="#2F2E41"/>
<path d="M212.572 195.31H39.6663C38.2666 195.308 36.9247 194.752 35.935 193.764C34.9453 192.776 34.3885 191.436 34.387 190.039V68.0094C34.3885 66.6119 34.9453 65.2722 35.935 64.284C36.9247 63.2959 38.2666 62.7401 39.6663 62.7385H212.572C213.972 62.7401 215.314 63.2959 216.303 64.284C217.293 65.2722 217.85 66.6119 217.851 68.0094V190.039C217.85 191.436 217.293 192.776 216.303 193.764C215.314 194.752 213.972 195.308 212.572 195.31Z" fill="#E6E6E6"/>
<path d="M205.374 69.9246H46.8668C45.4665 69.9264 44.1242 70.4825 43.1341 71.4711C42.1439 72.4596 41.5869 73.7998 41.5851 75.1978V182.85C41.5869 184.248 42.1439 185.588 43.134 186.577C44.1242 187.566 45.4665 188.122 46.8668 188.123H205.374C206.773 188.122 208.115 187.565 209.105 186.577C210.094 185.588 210.65 184.248 210.651 182.85V75.1978C210.65 73.8002 210.094 72.4601 209.105 71.4715C208.115 70.4829 206.773 69.9265 205.374 69.9246Z" fill="white"/>
<path d="M148.927 120.445L148.634 120.971C151.237 114.569 148.87 106.679 144.228 101.851C139.587 97.0231 133.133 94.8159 126.779 93.9403C122.062 93.2902 117.166 93.309 112.68 95.0341C106.185 97.5323 101.223 103.315 97.0795 109.331C95.1842 112.083 93.3209 115.22 93.5097 118.659C93.685 121.851 95.5825 124.559 97.1364 127.267C98.6905 129.975 99.9882 133.334 98.8729 136.29C98.2083 138.051 96.8037 139.319 95.664 140.76C94.5243 142.201 93.5867 144.148 94.1373 145.956C94.5827 147.418 95.9225 148.38 97.3005 148.7C98.6782 149.021 100.108 148.811 101.503 148.601L137.722 143.137C140.184 142.766 142.518 141.806 144.527 140.339C146.537 138.873 148.161 136.942 149.261 134.713C150.362 132.484 150.906 130.023 150.848 127.538C150.79 125.054 150.131 122.62 148.927 120.445Z" fill="#2F2E41"/>
<path d="M121.986 142.885C131.766 142.885 139.695 134.97 139.695 125.205C139.695 115.441 131.766 107.525 121.986 107.525C112.206 107.525 104.278 115.441 104.278 125.205C104.278 134.97 112.206 142.885 121.986 142.885Z" fill="#FFB9B9"/>
<path d="M166.155 165.229C165.009 162.722 163.202 160.573 160.926 159.013C158.651 157.453 155.993 156.54 153.238 156.373L148.303 156.074L148.314 156.126L135.768 148.591C136.077 148.944 115.361 149.683 115.361 149.683L107.675 156.303L104.451 156.498C101.696 156.665 99.0385 157.578 96.7631 159.138C94.4876 160.698 92.6801 162.847 91.5341 165.354L81.0663 188.249H101.93L102.414 186.169C102.941 186.809 103.451 187.461 103.946 188.123H176.623L166.155 165.229Z" fill="#9787F3"/>
<path d="M138.783 108.796C138.326 106.382 135.859 105.278 133.746 104.743C127.617 103.181 121.241 102.832 114.977 103.713C110.411 104.364 105.736 105.797 102.423 109.356C99.839 112.131 98.2755 116.107 98.1538 120.212C98.083 122.604 98.5115 125.094 99.7036 127.109C100.896 129.124 102.928 130.585 105.026 130.534L105.239 131.271C114.129 130.035 122.388 124.512 127.59 116.324C126.613 119.804 124.671 122.938 121.986 125.362C127.988 122.964 133.206 118.949 137.058 113.765C138.11 112.371 139.131 110.633 138.783 108.796Z" fill="#2F2E41"/>
<path d="M332.522 24.0972H321.909C321.806 24.0975 321.704 24.0774 321.608 24.0381C321.512 23.9988 321.425 23.9411 321.352 23.8682C321.279 23.7953 321.221 23.7086 321.181 23.6132C321.141 23.5178 321.121 23.4156 321.121 23.3123C321.121 23.209 321.141 23.1068 321.181 23.0114C321.221 22.916 321.279 22.8294 321.352 22.7564C321.425 22.6835 321.512 22.6258 321.608 22.5865C321.704 22.5472 321.806 22.5271 321.909 22.5274H332.522C332.731 22.5281 332.93 22.611 333.077 22.7582C333.224 22.9053 333.306 23.1046 333.306 23.3123C333.306 23.52 333.224 23.7193 333.077 23.8664C332.93 24.0136 332.731 24.0965 332.522 24.0972Z" fill="white"/>
<path d="M332.522 27.0406H321.909C321.806 27.0409 321.704 27.0208 321.608 26.9815C321.512 26.9422 321.425 26.8844 321.352 26.8115C321.279 26.7386 321.221 26.652 321.181 26.5566C321.141 26.4612 321.121 26.3589 321.121 26.2557C321.121 26.1524 321.141 26.0501 321.181 25.9547C321.221 25.8593 321.279 25.7727 321.352 25.6998C321.425 25.6269 321.512 25.5691 321.608 25.5298C321.704 25.4905 321.806 25.4704 321.909 25.4708H332.522C332.731 25.4714 332.93 25.5544 333.077 25.7015C333.224 25.8486 333.306 26.0479 333.306 26.2557C333.306 26.4634 333.224 26.6627 333.077 26.8098C332.93 26.9569 332.731 27.0399 332.522 27.0406Z" fill="white"/>
<path d="M332.522 29.9839H321.909C321.806 29.9842 321.704 29.9642 321.608 29.9249C321.512 29.8856 321.425 29.8278 321.352 29.7549C321.279 29.682 321.221 29.5953 321.181 29.4999C321.141 29.4046 321.121 29.3023 321.121 29.199C321.121 29.0957 321.141 28.9935 321.181 28.8981C321.221 28.8027 321.279 28.7161 321.352 28.6432C321.425 28.5702 321.512 28.5125 321.608 28.4732C321.704 28.4339 321.806 28.4138 321.909 28.4141H332.522C332.731 28.4148 332.93 28.4978 333.077 28.6449C333.224 28.792 333.306 28.9913 333.306 29.199C333.306 29.4068 333.224 29.606 333.077 29.7532C332.93 29.9003 332.731 29.9833 332.522 29.9839Z" fill="white"/>
<path d="M149.274 253.622H84.7161V254.542H149.274V253.622Z" fill="#E6E6E6"/>
<path d="M103.161 245.348H102.239V253.852H103.161V245.348Z" fill="#E6E6E6"/>
<path d="M131.29 245.348H130.368V253.852H131.29V245.348Z" fill="#E6E6E6"/>
<path d="M337.732 111.203H273.174V112.122H337.732V111.203Z" fill="#E6E6E6"/>
<path d="M291.619 102.929H290.697V111.432H291.619V102.929Z" fill="#E6E6E6"/>
<path d="M319.748 102.929H318.826V111.432H319.748V102.929Z" fill="#E6E6E6"/>
</g>
</g>
<defs>
<clipPath id="clip0_431_331">
<rect width="491.412" height="644.793" fill="white"/>
</clipPath>
<clipPath id="clip1_431_331">
<rect width="433" height="362" fill="white" transform="translate(58.4124 282.793)"/>
</clipPath>
<clipPath id="clip2_431_331">
<rect width="309" height="250" fill="white" transform="translate(34.387 19.5261)"/>
</clipPath>
</defs>
</svg>
