<svg width="150" height="150" viewBox="0 0 150 150" fill="none" xmlns="http://www.w3.org/2000/svg">
<g opacity="0.3">
<path d="M23.1826 103.125C23.1818 100.807 23.2258 98.6382 23.1646 96.4728C23.1225 94.9799 23.7334 94.1317 25.2357 94.1154C29.7202 94.0669 34.2064 93.9971 38.6895 94.0749C40.6377 94.1087 41.1966 95.8576 39.9376 97.586C37.6401 100.74 38.8831 104.84 42.5061 106.058C44.6586 106.781 46.7589 106.13 48.309 104.259C49.7308 102.542 49.8854 100.174 48.7126 98.1863C48.1474 97.2283 47.012 96.383 47.8079 95.088C48.5709 93.8465 49.9157 94.0904 51.0982 94.0758C53.9705 94.0404 56.8442 94.0209 59.7158 94.074C60.924 94.0963 61.4699 93.7095 61.4369 92.4352C61.377 90.1213 61.4199 87.8046 61.4199 85.2827C57.6467 85.6738 53.9048 85.8526 51.3046 82.3464C49.9739 80.5521 49.1175 78.5621 49.2881 76.3149C49.5121 73.3625 50.7343 70.8588 53.283 69.2003C55.7485 67.596 58.4991 67.6096 61.5062 68.2369C61.5062 65.6905 61.5089 63.3492 61.505 61.0079C61.5032 59.9015 61.4357 58.7923 61.4931 57.6893C61.5655 56.2951 62.3995 55.611 63.7668 55.5908C65.2784 55.5686 66.7906 55.5805 68.3025 55.5837C77.9285 55.6037 87.5545 55.6257 97.1805 55.6465C98.9771 55.6503 100.737 55.8329 102.084 57.1909C103.037 58.1526 103.532 59.3433 103.531 60.7313C103.526 74.3892 103.513 88.0471 103.556 101.705C103.561 103.096 102.905 103.253 101.793 103.237C100.723 103.223 99.9946 103.158 99.9739 101.737C99.9156 97.7445 99.8574 97.742 95.9108 97.7461C93.4917 97.7486 91.0725 97.7505 88.6537 97.7783C87.5921 97.7905 86.622 97.6529 86.0886 96.5823C85.5858 95.5731 86.2457 94.865 86.7588 94.1201C88.3255 91.8456 88.2772 89.4214 86.6314 87.4206C85.2058 85.6876 82.3596 85.0624 80.2814 86.0258C77.3615 87.3794 76.3056 91.1499 78.0915 93.8616C78.4217 94.363 78.8694 94.7935 78.9974 95.413C79.2827 96.794 78.4472 97.7514 76.8214 97.7641C73.5963 97.7893 70.3707 97.7483 67.1452 97.7461C65.1316 97.7448 65.129 97.7541 65.1263 99.727C65.1232 101.931 65.1256 104.136 65.1256 106.501C66.9329 106.337 68.5359 106.009 70.2064 106.324C74.8276 107.196 78.0537 111.892 77.2062 116.729C76.3663 121.522 71.797 124.821 67.1611 123.982C65.1591 123.62 65.1387 123.633 65.131 125.699C65.1245 127.462 65.1823 129.228 65.1143 130.99C65.0707 132.12 65.5169 132.497 66.6122 132.487C70.7445 132.451 74.8774 132.472 79.01 132.473C80.8515 132.474 81.7123 133.857 80.9698 135.593C80.8085 135.97 80.5512 136.14 80.1659 136.157C79.864 136.17 79.5616 136.18 79.2593 136.18C62.4768 136.181 45.6942 136.182 28.9117 136.176C27.5853 136.175 26.3171 135.953 25.215 135.106C23.7869 134.01 23.1638 132.595 23.1694 130.793C23.1977 121.621 23.1826 112.448 23.1826 103.125ZM56.9679 71.5201C54.6878 72.263 53.3104 73.8046 53.0505 76.1965C52.8013 78.4898 53.8378 80.2285 55.7802 81.3533C57.8798 82.569 59.9273 82.2994 61.804 80.7751C62.5363 80.1803 63.3168 79.989 64.1824 80.4354C65.0267 80.8708 65.1315 81.6423 65.1272 82.4939C65.111 85.7679 65.1805 89.0435 65.0938 92.3152C65.0578 93.6743 65.538 94.0741 66.8377 94.0131C68.7476 93.9235 70.6648 94.0003 72.5787 93.9826C73.0048 93.9787 73.5003 94.1306 73.8523 93.6027C73.7595 92.9029 73.6485 92.1614 73.5645 91.4168C72.962 86.0777 78.6523 80.9088 83.9112 82.014C89.225 83.1308 92.1558 87.2658 91.3272 92.6496C91.1636 93.7127 91.3923 94.0178 92.4015 94.0034C94.5165 93.9731 96.6326 93.9737 98.7477 94.0032C99.6358 94.0155 100.011 93.6885 100.009 92.7656C99.9918 82.3392 100.008 71.9126 99.9893 61.4862C99.9866 59.9718 99.3759 59.3803 97.8649 59.3781C87.4384 59.3628 77.0119 59.3783 66.5854 59.3526C65.4618 59.3498 65.0943 59.7838 65.1094 60.8799C65.1558 64.254 65.1136 67.6292 65.1298 71.0039C65.1339 71.8771 64.9054 72.6055 64.1127 73.0464C63.291 73.5034 62.5685 73.2211 61.886 72.6869C60.5076 71.6081 58.9635 71.1434 56.9679 71.5201ZM38.5608 107.995C35.6108 105.76 34.9088 102.68 35.4275 99.2398C35.5922 98.148 35.4271 97.7545 34.2962 97.7796C32.2316 97.8256 30.1641 97.828 28.0998 97.7741C27.0445 97.7466 26.697 98.1552 26.6996 99.193C26.7261 109.572 26.72 119.951 26.7166 130.33C26.7162 131.723 27.2658 132.479 28.7787 132.476C39.2584 132.455 49.7382 132.458 60.2179 132.479C61.2746 132.481 61.6168 132.056 61.6028 131.029C61.5582 127.755 61.5846 124.48 61.5821 121.205C61.5813 120.249 61.4525 119.245 62.5328 118.702C63.5871 118.172 64.3476 118.764 65.128 119.36C66.4293 120.356 67.8763 120.875 69.5067 120.362C71.7539 119.656 73.2145 118.165 73.6461 115.811C73.9904 113.933 72.9165 111.554 71.2335 110.617C69.1721 109.47 67.0932 109.546 65.0975 110.867C62.879 112.336 61.805 111.819 61.5392 109.219C61.1992 105.894 61.5547 102.575 61.5856 99.2541C61.5958 98.1605 61.2461 97.7148 60.1053 97.7596C58.244 97.8327 56.3777 97.7748 54.5135 97.779C52.6275 97.7832 52.6472 97.8391 52.856 99.79C53.2038 103.039 52.3858 105.878 49.6746 107.96C46.3367 110.522 42.6107 110.581 38.5608 107.995Z" fill="#2D274B"/>
<path d="M139.209 134.319C139.149 135.973 139.227 137.502 139.002 138.985C138.524 142.149 136.869 143.6 133.713 144.061C131.993 144.312 130.296 144.027 128.589 144.063C115.945 144.333 103.3 144.426 90.6529 144.362C86.7677 144.342 85.2871 142.875 84.8532 138.98C84.1963 133.081 84.9692 127.211 85.1153 121.333C85.1803 118.717 84.8787 116.113 85.1412 113.489C85.5013 109.889 87.1494 108.04 90.7747 107.554C92.2778 107.353 93.7838 107.329 95.296 107.312C105.12 107.201 114.944 107.107 124.766 106.928C127.934 106.87 131.092 106.471 134.263 106.936C138.033 107.49 139.797 109.431 139.811 113.196C139.834 119.139 139.931 125.084 139.489 131.019C139.41 132.072 139.304 133.122 139.209 134.319ZM106.3 140.52C111.538 140.447 116.777 140.366 122.016 140.303C125.492 140.261 128.969 140.248 132.445 140.218C134.633 140.2 135.004 139.853 135.133 137.726C135.244 135.918 135.33 134.108 135.467 132.302C135.956 125.872 136.145 119.433 135.975 112.987C135.942 111.729 135.336 110.965 133.986 110.758C130.918 110.287 127.867 110.66 124.802 110.732C114.177 110.979 103.549 111.11 92.9219 111.262C89.5898 111.309 88.9338 111.89 89.0017 115.264C89.0959 119.951 88.9757 124.636 88.639 129.304C88.4062 132.531 88.3314 135.726 88.699 138.939C88.8072 139.885 89.1555 140.487 90.1513 140.508C92.1147 140.548 94.0614 140.99 96.0302 140.802C99.3477 140.484 102.675 140.605 106.3 140.52Z" fill="#2D274B"/>
<path d="M16.1441 81.4138C15.1589 78.8909 15.6853 76.6603 17.1353 74.3199C15.0787 73.4631 13.1184 72.6194 11.1374 71.8276C8.56538 70.7996 8.34592 70.3746 9.37622 67.7772C12.6045 59.6386 15.8459 51.5051 19.0954 43.3748C19.9862 41.1461 22.3973 40.0157 24.6981 40.914C33.1371 44.2087 41.5525 47.5641 49.9636 50.9294C51.4538 51.5257 51.7927 52.3081 51.215 53.8114C50.0239 56.9113 48.8123 60.0065 47.4879 63.051C46.5382 65.2342 45.0811 65.2922 43.7322 63.3254C42.5627 61.6202 40.8857 61.0744 39.1597 61.837C37.3388 62.6416 36.3764 64.3736 36.8019 66.08C37.2768 67.9842 38.7595 69.0303 40.8473 68.9304C41.1992 68.9136 41.5502 68.868 41.902 68.8629C43.8675 68.8346 44.7584 69.906 44.0836 71.7392C42.9192 74.9022 41.6273 78.019 40.354 81.141C39.864 82.3424 38.9843 82.8372 37.6885 82.339C36.186 81.7612 34.6831 81.184 33.1744 80.6226C32.3847 80.3287 31.6408 79.8693 30.5874 79.8824C29.6451 84.0003 27.0928 86.3265 22.7401 86.2719C19.492 86.2312 17.4458 84.3904 16.1441 81.4138ZM25.0369 82.0785C26.9241 80.9598 26.8658 79.1502 26.8114 77.289C26.7595 75.5135 27.3169 75.0406 29.0864 75.2268C29.6258 75.2835 30.1634 75.4701 30.674 75.6688C32.597 76.4174 34.5096 77.1929 36.4238 77.964C36.96 78.1801 37.4986 78.4152 37.8059 77.6618C38.446 76.0922 39.0729 74.5173 39.7069 72.9406C34.4065 71.1083 32.0336 67.4529 33.2882 63.1939C33.8389 61.3243 35.0471 59.9598 36.704 58.9362C39.5225 57.195 42.2732 57.8283 45.0819 59.2882C45.6934 57.8319 46.1946 56.5242 46.788 55.2598C47.2944 54.1808 46.9853 53.649 45.8941 53.2239C38.7198 50.4292 31.5576 47.6026 24.4119 44.7357C23.2053 44.2516 22.5768 44.4934 22.0989 45.7038C19.2347 52.9592 16.3383 60.2019 13.4182 67.4349C13.0406 68.3702 13.2927 68.7955 14.185 69.1337C16.2554 69.9185 18.2977 70.7771 20.3534 71.6009C21.2781 71.9715 22.3129 72.1778 22.485 73.45C22.6458 74.6395 21.8132 75.1191 21.0499 75.7122C19.3394 77.0411 18.8846 79.0901 19.8692 80.7989C20.85 82.501 22.7515 83.0315 25.0369 82.0785Z" fill="#2D274B"/>
<path d="M121.594 117.855C122.304 117.802 122.787 118.024 123.261 118.353C125.664 120.02 128.218 121.441 130.742 122.912C133.063 124.264 133.282 126.474 131.065 127.949C128.009 129.982 124.802 131.788 121.652 133.678C121.398 133.83 121.091 133.914 120.797 133.973C119.794 134.177 118.837 134.144 118.364 133.038C117.889 131.926 118.307 131.089 119.31 130.491C121.645 129.096 123.98 127.699 126.309 126.293C126.643 126.093 127.07 126 127.278 125.47C126.682 124.803 125.789 124.546 125.016 124.124C123.509 123.301 121.987 122.487 120.789 121.239C119.469 119.862 119.752 118.62 121.594 117.855Z" fill="#2D274B"/>
<path d="M103.452 117.281C105.461 117.974 105.837 119.211 104.571 120.689C103.1 122.406 101.115 123.431 99.2181 124.57C98.4567 125.027 97.5845 125.323 96.9202 126.083C97.4226 126.879 98.2239 127.2 98.9504 127.613C100.217 128.334 101.556 128.942 102.612 129.985C103.326 130.691 103.654 131.478 103.017 132.406C102.395 133.311 101.413 133.455 100.601 133.008C98.0962 131.632 95.446 130.44 93.4166 128.339C91.8032 126.669 91.7887 124.769 93.576 123.522C96.5821 121.425 99.851 119.717 102.765 117.47C102.914 117.356 103.142 117.345 103.452 117.281Z" fill="#2D274B"/>
<path d="M108.848 128.235C110.474 123.992 112.054 119.857 113.656 115.73C113.855 115.22 114.111 114.71 114.443 114.278C115.112 113.407 116.041 113.14 116.981 113.721C117.879 114.277 118.164 115.13 117.743 116.207C115.451 122.063 113.191 127.931 110.915 133.792C110.412 135.088 109.459 135.65 108.336 135.194C107.169 134.721 106.836 133.776 107.253 132.598C107.757 131.175 108.289 129.763 108.848 128.235Z" fill="#2D274B"/>
</g>
</svg>
