<svg width="238" height="85" viewBox="0 0 238 85" fill="none" xmlns="http://www.w3.org/2000/svg">
<path d="M193.38 70.18C192.66 70.18 192.3 69.85 192.3 69.19C192.3 69.01 192.36 68.86 192.48 68.74C198.06 59.92 204.09 52.18 210.57 45.52C210.63 44.08 210.69 42.22 210.75 39.94C210.81 37.6 210.9 34.84 211.02 31.66C210.36 31.78 209.25 32.8 207.69 34.72C206.13 36.58 204.3 39.04 202.2 42.1C200.16 45.1 198.24 47.59 196.44 49.57C194.7 51.55 193.71 52.63 193.47 52.81C193.05 53.17 192.66 53.35 192.3 53.35C192 53.35 191.85 53.2 191.85 52.9C191.85 52.66 191.97 52.42 192.21 52.18C192.39 51.88 192.87 51.31 193.65 50.47C194.73 49.27 195.66 48.22 196.44 47.32C197.22 46.36 197.97 45.34 198.69 44.26C199.47 43.18 200.37 41.86 201.39 40.3C202.05 39.34 202.86 38.14 203.82 36.7C204.84 35.2 205.86 33.76 206.88 32.38C207.96 31 208.89 29.98 209.67 29.32C210.27 28.78 210.9 28.39 211.56 28.15C212.28 27.91 212.94 27.79 213.54 27.79C214.26 27.79 214.92 27.94 215.52 28.24C216.18 28.54 216.42 29.2 216.24 30.22C216.24 30.28 216.09 31.24 215.79 33.1C215.55 34.9 215.31 37.57 215.07 41.11C216.21 40.03 218.46 38.02 221.82 35.08C225.24 32.08 229.62 28.3 234.96 23.74C235.08 23.62 235.23 23.56 235.41 23.56C235.83 23.56 236.28 23.83 236.76 24.37C237.24 24.85 237.48 25.36 237.48 25.9C237.48 26.38 237.24 26.86 236.76 27.34C234.9 28.84 231.3 31.54 225.96 35.44C223.56 37.12 221.4 38.74 219.48 40.3C217.62 41.86 216.09 43.21 214.89 44.35C214.83 44.95 214.8 45.55 214.8 46.15C214.8 46.75 214.8 47.32 214.8 47.86C214.8 51.58 215.16 54.37 215.88 56.23C216.66 58.03 217.89 58.93 219.57 58.93C221.43 58.93 223.77 57.76 226.59 55.42C229.47 53.02 232.41 50.08 235.41 46.6C236.01 46 236.46 45.7 236.76 45.7C237.06 45.7 237.21 45.88 237.21 46.24C237.21 46.36 237.15 46.54 237.03 46.78C236.97 47.02 236.79 47.32 236.49 47.68C234.57 49.9 232.47 52.15 230.19 54.43C227.97 56.71 225.72 58.63 223.44 60.19C221.16 61.69 218.97 62.44 216.87 62.44C215.07 62.44 213.72 61.78 212.82 60.46C211.92 59.08 211.32 57.34 211.02 55.24C210.78 53.14 210.63 50.95 210.57 48.67C203.25 56.47 197.76 63.52 194.1 69.82C193.92 70.06 193.68 70.18 193.38 70.18Z" fill="#9787F3"/>
<path d="M15.8 56H1.95V54.8L6.3 54.35V24.25L1.95 23.8V22.6H15.8V23.8L11.45 24.25V54.35L15.8 54.8V56ZM27.9734 36.9C29.4734 33.0333 32.4901 31.1 37.0234 31.1C39.2901 31.1 41.1234 31.7833 42.5234 33.15C43.9234 34.4833 44.6234 36.4 44.6234 38.9C44.6234 43.2 44.4901 48.4167 44.2234 54.55L47.6734 54.8V56H36.6234V54.8L39.3234 54.6C39.5901 47.0667 39.7234 42.75 39.7234 41.65C39.7234 40.55 39.7068 39.7167 39.6734 39.15C39.6401 38.55 39.5401 37.8333 39.3734 37C39.2401 36.1333 39.0234 35.45 38.7234 34.95C37.9901 33.7167 36.8401 33.1 35.2734 33.1C33.1401 33.1 31.3901 33.9833 30.0234 35.75C28.6568 37.5167 27.9734 39.4333 27.9734 41.5V54.55L31.7234 54.8V56H19.7734V54.8L23.0734 54.55V33.4L18.8234 33.2V32.05L27.7734 31.45L27.5234 36.85L27.9734 36.9ZM66.1781 50.8C66.1781 50.9 66.1615 51.0167 66.1281 51.15C65.5948 52.7833 64.6948 54.1 63.4281 55.1C62.1948 56.0667 60.7448 56.55 59.0781 56.55C57.4115 56.55 56.0115 56.0833 54.8781 55.15C53.7781 54.1833 53.2281 52.3167 53.2281 49.55C53.2281 48.7833 53.3115 43.2333 53.4781 32.9H50.0281V31.6H53.5281L53.5781 24.25H58.4781L58.3281 31.6H65.4781V32.9H58.3281C58.1615 43.6667 58.0781 49.9667 58.0781 51.8C58.0781 54.0333 58.8115 55.15 60.2781 55.15C61.1781 55.15 62.1115 54.6333 63.0781 53.6C64.0781 52.5667 64.7781 51.4 65.1781 50.1C65.8448 50.1 66.1781 50.3333 66.1781 50.8ZM80.6934 56.55C77.26 56.55 74.4934 55.3833 72.3934 53.05C70.2934 50.7167 69.2434 47.6333 69.2434 43.8C69.2434 39.9667 70.3434 36.8833 72.5434 34.55C74.7767 32.2167 77.5767 31.05 80.9434 31.05C84.31 31.05 86.8267 31.8167 88.4934 33.35C90.16 34.85 90.9934 36.95 90.9934 39.65C90.9934 40.45 90.9267 41.25 90.7934 42.05H74.6434V43.8C74.6434 47.5333 75.1767 50.3667 76.2434 52.3C77.31 54.2 79.06 55.15 81.4934 55.15C84.9267 55.15 87.5767 53.65 89.4434 50.65C90.1767 50.8833 90.5434 51.2333 90.5434 51.7C90.5434 52.5333 89.7767 53.5 88.2434 54.6C87.51 55.1333 86.4767 55.6 85.1434 56C83.81 56.3667 82.3267 56.55 80.6934 56.55ZM86.2434 38.6C86.2434 37.0667 85.9267 35.75 85.2934 34.65C84.4267 33.1833 83.0267 32.45 81.0934 32.45C77.4934 32.45 75.3934 35.05 74.7934 40.25H86.1434C86.21 39.6833 86.2434 39.1333 86.2434 38.6ZM110.812 31C111.678 31 112.362 31.2167 112.862 31.65C113.362 32.05 113.612 32.6167 113.612 33.35C113.612 34.6167 113.128 35.45 112.162 35.85C111.628 35.4167 110.662 35.2 109.262 35.2C107.862 35.2 106.512 35.6667 105.212 36.6C103.945 37.5 103.312 38.5333 103.312 39.7V54.55L107.812 54.8V56H95.1117V54.8L98.4117 54.6V33.25L94.4617 33.05V31.9L103.312 31.35L103.012 37.5H103.212C103.778 35.7 104.812 34.1667 106.312 32.9C107.845 31.6333 109.345 31 110.812 31ZM114.309 31.6H124.809V32.9L121.409 33.2L128.509 50.65L134.509 33.85L130.509 32.9V31.6H140.109V32.9L136.609 33.85L128.309 56H126.309L116.659 33.15L114.309 32.8V31.6ZM152.486 56.6C147.152 56.6 144.486 54.0333 144.486 48.9C144.486 45.1333 144.602 39.9 144.836 33.2L140.836 33V31.85L149.736 31.3C149.502 40.1 149.386 46.0833 149.386 49.25C149.386 51.15 149.736 52.5667 150.436 53.5C151.136 54.4333 152.302 54.9 153.936 54.9C155.602 54.9 157.169 53.9833 158.636 52.15C160.102 50.2833 160.836 48.65 160.836 47.25V33.2L156.686 33V31.85L165.736 31.3V54.45L169.986 54.65L170.036 55.8L161.036 56.4L161.386 51H160.786C159.052 54.7333 156.286 56.6 152.486 56.6ZM184.355 56.55C180.922 56.55 178.155 55.3833 176.055 53.05C173.955 50.7167 172.905 47.6333 172.905 43.8C172.905 39.9667 174.005 36.8833 176.205 34.55C178.439 32.2167 181.239 31.05 184.605 31.05C187.972 31.05 190.489 31.8167 192.155 33.35C193.822 34.85 194.655 36.95 194.655 39.65C194.655 40.45 194.589 41.25 194.455 42.05H178.305V43.8C178.305 47.5333 178.839 50.3667 179.905 52.3C180.972 54.2 182.722 55.15 185.155 55.15C188.589 55.15 191.239 53.65 193.105 50.65C193.839 50.8833 194.205 51.2333 194.205 51.7C194.205 52.5333 193.439 53.5 191.905 54.6C191.172 55.1333 190.139 55.6 188.805 56C187.472 56.3667 185.989 56.55 184.355 56.55ZM189.905 38.6C189.905 37.0667 189.589 35.75 188.955 34.65C188.089 33.1833 186.689 32.45 184.755 32.45C181.155 32.45 179.055 35.05 178.455 40.25H189.805C189.872 39.6833 189.905 39.1333 189.905 38.6Z" fill="#2D274B"/>
</svg>
