<svg width="148" height="32" viewBox="0 0 148 32" fill="none" xmlns="http://www.w3.org/2000/svg">
<path d="M116.24 29.61C115.8 29.61 115.58 29.4083 115.58 29.005C115.58 28.895 115.616 28.8033 115.69 28.73C119.1 23.34 122.785 18.61 126.745 14.54C126.781 13.66 126.818 12.5233 126.855 11.13C126.891 9.7 126.946 8.01333 127.02 6.07C126.616 6.14333 125.938 6.76667 124.985 7.94C124.031 9.07667 122.913 10.58 121.63 12.45C120.383 14.2833 119.21 15.805 118.11 17.015C117.046 18.225 116.441 18.885 116.295 18.995C116.038 19.215 115.8 19.325 115.58 19.325C115.396 19.325 115.305 19.2333 115.305 19.05C115.305 18.9033 115.378 18.7567 115.525 18.61C115.635 18.4267 115.928 18.0783 116.405 17.565C117.065 16.8317 117.633 16.19 118.11 15.64C118.586 15.0533 119.045 14.43 119.485 13.77C119.961 13.11 120.511 12.3033 121.135 11.35C121.538 10.7633 122.033 10.03 122.62 9.15C123.243 8.23333 123.866 7.35333 124.49 6.51C125.15 5.66667 125.718 5.04333 126.195 4.64C126.561 4.31 126.946 4.07167 127.35 3.925C127.79 3.77833 128.193 3.705 128.56 3.705C129 3.705 129.403 3.79667 129.77 3.98C130.173 4.16333 130.32 4.56667 130.21 5.19C130.21 5.22667 130.118 5.81333 129.935 6.95C129.788 8.05 129.641 9.68167 129.495 11.845C130.191 11.185 131.566 9.95667 133.62 8.16C135.71 6.32667 138.386 4.01666 141.65 1.23C141.723 1.15667 141.815 1.12 141.925 1.12C142.181 1.12 142.456 1.285 142.75 1.615C143.043 1.90833 143.19 2.22 143.19 2.55C143.19 2.84333 143.043 3.13667 142.75 3.43C141.613 4.34667 139.413 5.99667 136.15 8.38C134.683 9.40667 133.363 10.3967 132.19 11.35C131.053 12.3033 130.118 13.1283 129.385 13.825C129.348 14.1917 129.33 14.5583 129.33 14.925C129.33 15.2917 129.33 15.64 129.33 15.97C129.33 18.2433 129.55 19.9483 129.99 21.085C130.466 22.185 131.218 22.735 132.245 22.735C133.381 22.735 134.811 22.02 136.535 20.59C138.295 19.1233 140.091 17.3267 141.925 15.2C142.291 14.8333 142.566 14.65 142.75 14.65C142.933 14.65 143.025 14.76 143.025 14.98C143.025 15.0533 142.988 15.1633 142.915 15.31C142.878 15.4567 142.768 15.64 142.585 15.86C141.411 17.2167 140.128 18.5917 138.735 19.985C137.378 21.3783 136.003 22.5517 134.61 23.505C133.216 24.4217 131.878 24.88 130.595 24.88C129.495 24.88 128.67 24.4767 128.12 23.67C127.57 22.8267 127.203 21.7633 127.02 20.48C126.873 19.1967 126.781 17.8583 126.745 16.465C122.271 21.2317 118.916 25.54 116.68 29.39C116.57 29.5367 116.423 29.61 116.24 29.61Z" fill="#9787F3"/>
<path d="M9.48 21.3188H1.17V20.5988L3.78 20.3288V2.26879L1.17 1.99879V1.27879H9.48V1.99879L6.87 2.26879V20.3288L9.48 20.5988V21.3188ZM16.7841 9.85879C17.6841 7.53879 19.4941 6.37879 22.2141 6.37879C23.5741 6.37879 24.6741 6.78879 25.5141 7.60879C26.3541 8.40879 26.7741 9.55879 26.7741 11.0588C26.7741 13.6388 26.6941 16.7688 26.5341 20.4488L28.6041 20.5988V21.3188H21.9741V20.5988L23.5941 20.4788C23.7541 15.9588 23.8341 13.3688 23.8341 12.7088C23.8341 12.0488 23.8241 11.5488 23.8041 11.2088C23.7841 10.8488 23.7241 10.4188 23.6241 9.91879C23.5441 9.39879 23.4141 8.98879 23.2341 8.68879C22.7941 7.94879 22.1041 7.57879 21.1641 7.57879C19.8841 7.57879 18.8341 8.10879 18.0141 9.16879C17.1941 10.2288 16.7841 11.3788 16.7841 12.6188V20.4488L19.0341 20.5988V21.3188H11.8641V20.5988L13.8441 20.4488V7.75879L11.2941 7.63879V6.94879L16.6641 6.58879L16.5141 9.82879L16.7841 9.85879ZM39.7069 18.1988C39.7069 18.2588 39.6969 18.3288 39.6769 18.4088C39.3569 19.3888 38.8169 20.1788 38.0569 20.7788C37.3169 21.3588 36.4469 21.6488 35.4469 21.6488C34.4469 21.6488 33.6069 21.3688 32.9269 20.8088C32.2669 20.2288 31.9369 19.1088 31.9369 17.4488C31.9369 16.9888 31.9869 13.6588 32.0869 7.45879H30.0169V6.67879H32.1169L32.1469 2.26879H35.0869L34.9969 6.67879H39.2869V7.45879H34.9969C34.8969 13.9188 34.8469 17.6988 34.8469 18.7988C34.8469 20.1388 35.2869 20.8088 36.1669 20.8088C36.7069 20.8088 37.2669 20.4988 37.8469 19.8788C38.4469 19.2588 38.8669 18.5588 39.1069 17.7788C39.5069 17.7788 39.7069 17.9188 39.7069 18.1988ZM48.416 21.6488C46.356 21.6488 44.696 20.9488 43.436 19.5488C42.176 18.1488 41.546 16.2988 41.546 13.9988C41.546 11.6988 42.206 9.84879 43.526 8.44879C44.866 7.04879 46.546 6.34879 48.566 6.34879C50.586 6.34879 52.096 6.80879 53.096 7.72879C54.096 8.62879 54.596 9.88879 54.596 11.5088C54.596 11.9888 54.556 12.4688 54.476 12.9488H44.786V13.9988C44.786 16.2388 45.106 17.9388 45.746 19.0988C46.386 20.2388 47.436 20.8088 48.896 20.8088C50.956 20.8088 52.546 19.9088 53.666 18.1088C54.106 18.2488 54.326 18.4588 54.326 18.7388C54.326 19.2388 53.866 19.8188 52.946 20.4788C52.506 20.7988 51.886 21.0788 51.086 21.3188C50.286 21.5388 49.396 21.6488 48.416 21.6488ZM51.746 10.8788C51.746 9.95879 51.556 9.16879 51.176 8.50879C50.656 7.62879 49.816 7.18879 48.656 7.18879C46.496 7.18879 45.236 8.74879 44.876 11.8688H51.686C51.726 11.5288 51.746 11.1988 51.746 10.8788ZM66.487 6.31879C67.007 6.31879 67.417 6.44879 67.717 6.70879C68.017 6.94879 68.167 7.28879 68.167 7.72879C68.167 8.48879 67.877 8.98879 67.297 9.22879C66.977 8.96879 66.397 8.83879 65.557 8.83879C64.717 8.83879 63.907 9.11879 63.127 9.67879C62.367 10.2188 61.987 10.8388 61.987 11.5388V20.4488L64.687 20.5988V21.3188H57.067V20.5988L59.047 20.4788V7.66879L56.677 7.54879V6.85879L61.987 6.52879L61.807 10.2188H61.927C62.267 9.13879 62.887 8.21879 63.787 7.45879C64.707 6.69879 65.607 6.31879 66.487 6.31879ZM68.5854 6.67879H74.8854V7.45879L72.8454 7.63879L77.1054 18.1088L80.7054 8.02879L78.3054 7.45879V6.67879H84.0654V7.45879L81.9654 8.02879L76.9854 21.3188H75.7854L69.9954 7.60879L68.5854 7.39879V6.67879ZM91.4913 21.6788C88.2913 21.6788 86.6913 20.1388 86.6913 17.0588C86.6913 14.7988 86.7613 11.6588 86.9013 7.63879L84.5013 7.51879V6.82879L89.8413 6.49879C89.7013 11.7788 89.6313 15.3688 89.6313 17.2688C89.6313 18.4088 89.8413 19.2588 90.2613 19.8188C90.6813 20.3788 91.3813 20.6588 92.3613 20.6588C93.3613 20.6588 94.3013 20.1088 95.1813 19.0088C96.0613 17.8888 96.5013 16.9088 96.5013 16.0688V7.63879L94.0113 7.51879V6.82879L99.4413 6.49879V20.3888L101.991 20.5088L102.021 21.1988L96.6213 21.5588L96.8313 18.3188H96.4713C95.4313 20.5588 93.7713 21.6788 91.4913 21.6788ZM110.613 21.6488C108.553 21.6488 106.893 20.9488 105.633 19.5488C104.373 18.1488 103.743 16.2988 103.743 13.9988C103.743 11.6988 104.403 9.84879 105.723 8.44879C107.063 7.04879 108.743 6.34879 110.763 6.34879C112.783 6.34879 114.293 6.80879 115.293 7.72879C116.293 8.62879 116.793 9.88879 116.793 11.5088C116.793 11.9888 116.753 12.4688 116.673 12.9488H106.983V13.9988C106.983 16.2388 107.303 17.9388 107.943 19.0988C108.583 20.2388 109.633 20.8088 111.093 20.8088C113.153 20.8088 114.743 19.9088 115.863 18.1088C116.303 18.2488 116.523 18.4588 116.523 18.7388C116.523 19.2388 116.063 19.8188 115.143 20.4788C114.703 20.7988 114.083 21.0788 113.283 21.3188C112.483 21.5388 111.593 21.6488 110.613 21.6488ZM113.943 10.8788C113.943 9.95879 113.753 9.16879 113.373 8.50879C112.853 7.62879 112.013 7.18879 110.853 7.18879C108.693 7.18879 107.433 8.74879 107.073 11.8688H113.883C113.923 11.5288 113.943 11.1988 113.943 10.8788Z" fill="#2D274B"/>
</svg>
