<svg width="145" height="154" viewBox="0 0 145 154" fill="none" xmlns="http://www.w3.org/2000/svg">
<rect x="1" y="1" width="143" height="152" rx="16" fill="#F8F8FF" stroke="black" stroke-width="2"/>
<path d="M21.6122 82.2738V73.9538H23.0522V82.2738H21.6122ZM22.3322 72.5298C22.0548 72.5298 21.8148 72.4285 21.6122 72.2258C21.4202 72.0231 21.3242 71.7885 21.3242 71.5218C21.3242 71.2125 21.4148 70.9671 21.5962 70.7858C21.7775 70.6045 22.0228 70.5138 22.3322 70.5138C22.6095 70.5138 22.8442 70.6151 23.0362 70.8178C23.2388 71.0098 23.3402 71.2445 23.3402 71.5218C23.3402 71.8205 23.2495 72.0658 23.0682 72.2578C22.8868 72.4391 22.6415 72.5298 22.3322 72.5298ZM25.6122 82.2738V73.9538H27.0042V75.3458C27.3028 74.8978 27.6815 74.5245 28.1402 74.2258C28.6095 73.9165 29.1642 73.7618 29.8042 73.7618C30.7428 73.7618 31.4415 74.0445 31.9002 74.6098C32.3695 75.1751 32.6042 75.9218 32.6042 76.8498V82.2738H31.1642V77.0098C31.1642 76.4125 31.0202 75.9325 30.7322 75.5698C30.4548 75.2071 30.0655 75.0258 29.5642 75.0258C29.0735 75.0258 28.6095 75.2018 28.1722 75.5538C27.7348 75.8951 27.3615 76.3005 27.0522 76.7698V82.2738H25.6122ZM37.9929 82.4658C37.1929 82.4658 36.5582 82.2045 36.0889 81.6818C35.6302 81.1485 35.4009 80.3911 35.4009 79.4098V75.5058H33.9609V74.2578H35.4329L35.7369 71.6338H36.8409V74.2578H39.1449V75.5058H36.8409V79.5218C36.8409 80.1405 36.9689 80.5725 37.2249 80.8178C37.4916 81.0631 37.8062 81.1858 38.1689 81.1858C38.4356 81.1858 38.6862 81.1431 38.9209 81.0578C39.1662 80.9725 39.3902 80.8711 39.5929 80.7538L39.9929 81.9058C39.7796 82.0338 39.4916 82.1565 39.1289 82.2738C38.7662 82.4018 38.3876 82.4658 37.9929 82.4658ZM44.4558 82.4658C43.2611 82.4658 42.3118 82.0871 41.6078 81.3298C40.9144 80.5618 40.5678 79.4898 40.5678 78.1138C40.5678 77.2818 40.7224 76.5405 41.0318 75.8898C41.3518 75.2285 41.7944 74.7111 42.3598 74.3378C42.9251 73.9538 43.5811 73.7618 44.3278 73.7618C45.1278 73.7618 45.7891 73.9378 46.3118 74.2898C46.8451 74.6311 47.2451 75.0951 47.5118 75.6818C47.7784 76.2685 47.9118 76.9138 47.9118 77.6178C47.9118 77.9911 47.8958 78.3538 47.8638 78.7058H42.0398C42.1358 79.4845 42.4078 80.0925 42.8558 80.5298C43.3038 80.9671 43.8958 81.1858 44.6318 81.1858C45.1118 81.1858 45.5438 81.1378 45.9278 81.0418C46.3118 80.9351 46.6798 80.8018 47.0318 80.6418L47.3678 81.8738C46.9838 82.0445 46.5518 82.1831 46.0718 82.2898C45.5918 82.4071 45.0531 82.4658 44.4558 82.4658ZM42.0238 77.5378H46.5838C46.5838 76.7271 46.3811 76.1031 45.9758 75.6658C45.5704 75.2285 45.0104 75.0098 44.2958 75.0098C43.6771 75.0098 43.1651 75.2285 42.7598 75.6658C42.3544 76.0925 42.1091 76.7165 42.0238 77.5378ZM49.8309 82.2738V73.9538H51.2229V75.7618C51.3616 75.4098 51.5482 75.0845 51.7829 74.7858C52.0176 74.4765 52.3109 74.2311 52.6629 74.0498C53.0149 73.8578 53.4256 73.7618 53.8949 73.7618C54.0549 73.7618 54.2149 73.7725 54.3749 73.7938C54.5349 73.8045 54.6682 73.8258 54.7749 73.8578L54.3429 75.3458C54.1402 75.2605 53.9002 75.2178 53.6229 75.2178C53.2282 75.2178 52.8496 75.3298 52.4869 75.5538C52.1349 75.7778 51.8416 76.1245 51.6069 76.5938C51.3829 77.0631 51.2709 77.6605 51.2709 78.3858V82.2738H49.8309ZM56.2215 82.2738V73.9538H57.6615V82.2738H56.2215ZM56.9415 72.5298C56.6642 72.5298 56.4242 72.4285 56.2215 72.2258C56.0295 72.0231 55.9335 71.7885 55.9335 71.5218C55.9335 71.2125 56.0242 70.9671 56.2055 70.7858C56.3869 70.6045 56.6322 70.5138 56.9415 70.5138C57.2189 70.5138 57.4535 70.6151 57.6455 70.8178C57.8482 71.0098 57.9495 71.2445 57.9495 71.5218C57.9495 71.8205 57.8589 72.0658 57.6775 72.2578C57.4962 72.4391 57.2509 72.5298 56.9415 72.5298ZM62.4455 82.2738L59.1015 74.3378L60.4135 73.7938L63.2455 80.6418L66.0775 73.7938L67.3095 74.3378L63.9495 82.2738H62.4455ZM71.7683 82.4658C70.5736 82.4658 69.6243 82.0871 68.9203 81.3298C68.2269 80.5618 67.8803 79.4898 67.8803 78.1138C67.8803 77.2818 68.0349 76.5405 68.3443 75.8898C68.6643 75.2285 69.1069 74.7111 69.6723 74.3378C70.2376 73.9538 70.8936 73.7618 71.6403 73.7618C72.4403 73.7618 73.1016 73.9378 73.6243 74.2898C74.1576 74.6311 74.5576 75.0951 74.8243 75.6818C75.0909 76.2685 75.2243 76.9138 75.2243 77.6178C75.2243 77.9911 75.2083 78.3538 75.1763 78.7058H69.3523C69.4483 79.4845 69.7203 80.0925 70.1683 80.5298C70.6163 80.9671 71.2083 81.1858 71.9443 81.1858C72.4243 81.1858 72.8563 81.1378 73.2403 81.0418C73.6243 80.9351 73.9923 80.8018 74.3443 80.6418L74.6803 81.8738C74.2963 82.0445 73.8643 82.1831 73.3843 82.2898C72.9043 82.4071 72.3656 82.4658 71.7683 82.4658ZM69.3363 77.5378H73.8963C73.8963 76.7271 73.6936 76.1031 73.2883 75.6658C72.8829 75.2285 72.3229 75.0098 71.6083 75.0098C70.9896 75.0098 70.4776 75.2285 70.0723 75.6658C69.6669 76.0925 69.4216 76.7165 69.3363 77.5378ZM78.8874 82.2738L76.2634 74.3378L77.5914 73.8738L79.7354 80.6418L81.6874 74.5458H83.2394L85.1434 80.6418L87.2714 73.8738L88.5514 74.3378L85.9114 82.2738H84.3274L82.4074 76.0818L80.4714 82.2738H78.8874ZM92.4772 82.4658C91.8478 82.4658 91.2772 82.3858 90.7652 82.2258C90.2638 82.0658 89.8478 81.8578 89.5172 81.6018L90.1252 80.4018C90.4025 80.6365 90.7492 80.8338 91.1652 80.9938C91.5918 81.1431 92.0452 81.2178 92.5252 81.2178C93.1225 81.2178 93.5705 81.1218 93.8692 80.9298C94.1785 80.7271 94.3332 80.4711 94.3332 80.1618C94.3332 79.9378 94.2745 79.7405 94.1572 79.5698C94.0505 79.3991 93.8478 79.2338 93.5492 79.0738C93.2505 78.9031 92.8185 78.7218 92.2532 78.5298C91.4745 78.2631 90.8878 77.9485 90.4932 77.5858C90.1092 77.2125 89.9172 76.7005 89.9172 76.0498C89.9172 75.4098 90.1945 74.8711 90.7492 74.4338C91.3145 73.9858 92.0932 73.7618 93.0852 73.7618C93.6185 73.7618 94.0932 73.8205 94.5092 73.9378C94.9252 74.0445 95.2985 74.1831 95.6292 74.3538L95.2292 75.5378C94.9412 75.3671 94.6105 75.2285 94.2372 75.1218C93.8745 75.0151 93.4692 74.9618 93.0212 74.9618C92.4665 74.9618 92.0452 75.0738 91.7572 75.2978C91.4692 75.5218 91.3252 75.7671 91.3252 76.0338C91.3252 76.2898 91.4372 76.5085 91.6612 76.6898C91.8852 76.8711 92.3225 77.0685 92.9732 77.2818C94.0292 77.6338 94.7652 78.0231 95.1812 78.4498C95.5972 78.8765 95.8052 79.4098 95.8052 80.0498C95.8052 80.7965 95.5012 81.3885 94.8932 81.8258C94.2958 82.2525 93.4905 82.4658 92.4772 82.4658Z" fill="black"/>
<path d="M22.8198 61.7738V30.3658L16.2158 34.0578H15.5918V29.3778L22.7678 25.3738H27.3958V61.7738H22.8198ZM32.6048 46.3298V40.7658C32.6048 37.9231 32.9341 35.4965 33.5928 33.4858C34.2515 31.4751 35.1701 29.8285 36.3488 28.5458C37.5621 27.2285 38.9315 26.2751 40.4568 25.6858C42.0168 25.0618 43.6808 24.7498 45.4488 24.7498C47.2168 24.7498 48.8635 25.0618 50.3888 25.6858C51.9488 26.2751 53.3181 27.2285 54.4968 28.5458C55.7101 29.8285 56.6461 31.4751 57.3048 33.4858C57.9635 35.4965 58.2928 37.9231 58.2928 40.7658V46.3298C58.2928 49.1725 57.9635 51.6165 57.3048 53.6618C56.6461 55.6725 55.7101 57.3191 54.4968 58.6018C53.3181 59.8845 51.9488 60.8378 50.3888 61.4618C48.8635 62.0511 47.2168 62.3458 45.4488 62.3458C43.6808 62.3458 42.0168 62.0511 40.4568 61.4618C38.9315 60.8378 37.5621 59.8845 36.3488 58.6018C35.1701 57.3191 34.2515 55.6725 33.5928 53.6618C32.9341 51.6165 32.6048 49.1725 32.6048 46.3298ZM37.2848 46.2778C37.2848 50.0911 37.9955 53.0205 39.4168 55.0658C40.8728 57.0765 42.8835 58.0818 45.4488 58.0818C47.9448 58.0818 49.9208 57.0765 51.3768 55.0658C52.8675 53.0205 53.6128 50.0911 53.6128 46.2778V40.8698C53.6128 36.9525 52.8675 34.0058 51.3768 32.0298C49.8861 30.0191 47.9101 29.0138 45.4488 29.0138C42.9528 29.0138 40.9595 30.0191 39.4688 32.0298C38.0128 34.0058 37.2848 36.9525 37.2848 40.8698V46.2778ZM62.3118 46.3298V40.7658C62.3118 37.9231 62.6411 35.4965 63.2998 33.4858C63.9585 31.4751 64.8771 29.8285 66.0558 28.5458C67.2691 27.2285 68.6385 26.2751 70.1638 25.6858C71.7238 25.0618 73.3878 24.7498 75.1558 24.7498C76.9238 24.7498 78.5705 25.0618 80.0958 25.6858C81.6558 26.2751 83.0251 27.2285 84.2038 28.5458C85.4171 29.8285 86.3531 31.4751 87.0118 33.4858C87.6705 35.4965 87.9998 37.9231 87.9998 40.7658V46.3298C87.9998 49.1725 87.6705 51.6165 87.0118 53.6618C86.3531 55.6725 85.4171 57.3191 84.2038 58.6018C83.0251 59.8845 81.6558 60.8378 80.0958 61.4618C78.5705 62.0511 76.9238 62.3458 75.1558 62.3458C73.3878 62.3458 71.7238 62.0511 70.1638 61.4618C68.6385 60.8378 67.2691 59.8845 66.0558 58.6018C64.8771 57.3191 63.9585 55.6725 63.2998 53.6618C62.6411 51.6165 62.3118 49.1725 62.3118 46.3298ZM66.9918 46.2778C66.9918 50.0911 67.7025 53.0205 69.1238 55.0658C70.5798 57.0765 72.5905 58.0818 75.1558 58.0818C77.6518 58.0818 79.6278 57.0765 81.0838 55.0658C82.5745 53.0205 83.3198 50.0911 83.3198 46.2778V40.8698C83.3198 36.9525 82.5745 34.0058 81.0838 32.0298C79.5931 30.0191 77.6171 29.0138 75.1558 29.0138C72.6598 29.0138 70.6665 30.0191 69.1758 32.0298C67.7198 34.0058 66.9918 36.9525 66.9918 40.8698V46.2778ZM92.3828 43.1058H112.923V44.5618H92.3828V43.1058ZM103.407 33.5378V54.0778H101.951V33.5378H103.407Z" fill="black"/>
<path d="M21.9169 114.226V98.8262H25.1509L28.6269 111.366H28.8689L32.3449 98.8262H35.5789V114.226H33.6649L33.7529 101.158H33.4449L29.8369 114.226H27.6589L24.0289 101.158H23.7429L23.8089 114.226H21.9169ZM37.2754 114.226V113.83L41.0154 98.8262L45.3714 98.8482L49.0894 113.83V114.226H47.1094L45.9214 109.276H40.4434L39.2554 114.226H37.2754ZM40.7954 107.56H45.5914L43.9414 100.63H42.4234L40.7954 107.56ZM50.7919 114.226V98.8262H52.7279V105.514H53.5199L58.1399 98.8262H60.1419V99.1782L55.0819 106.438L60.1419 113.874V114.226H58.1399L53.5199 107.362H52.7279V114.226H50.7919ZM69.4274 98.8262V100.586H63.6634V105.822C64.1474 105.617 64.6901 105.463 65.2914 105.36C65.9074 105.243 66.5307 105.17 67.1614 105.14C67.7921 105.111 68.3641 105.14 68.8774 105.228V106.9L68.7014 107.032C68.3054 106.915 67.8067 106.856 67.2054 106.856C66.6187 106.856 66.0101 106.908 65.3794 107.01C64.7487 107.113 64.1767 107.282 63.6634 107.516V112.466H69.4274V114.226H61.7274V98.8262H69.4274ZM75.9269 98.8262H77.9069L80.5029 106.9H82.3509L84.9469 98.8262H86.9269V99.2222L83.7589 108.704H82.3949V114.226H80.4589V108.726H79.0949L75.9269 99.2222V98.8262ZM87.3003 106.526C87.3003 104.649 87.601 103.131 88.2023 101.972C88.8037 100.799 89.5883 99.9409 90.5563 99.3982C91.539 98.8409 92.6023 98.5622 93.7463 98.5622C94.8903 98.5622 95.9463 98.8409 96.9143 99.3982C97.897 99.9409 98.689 100.799 99.2903 101.972C99.8917 103.131 100.192 104.649 100.192 106.526C100.192 108.389 99.8917 109.907 99.2903 111.08C98.689 112.254 97.897 113.119 96.9143 113.676C95.9463 114.219 94.8903 114.49 93.7463 114.49C92.6023 114.49 91.539 114.219 90.5563 113.676C89.5883 113.119 88.8037 112.254 88.2023 111.08C87.601 109.907 87.3003 108.389 87.3003 106.526ZM89.3023 106.526C89.3023 107.89 89.493 109.027 89.8743 109.936C90.2703 110.846 90.8057 111.528 91.4803 111.982C92.155 112.422 92.9103 112.642 93.7463 112.642C94.5677 112.642 95.3157 112.422 95.9903 111.982C96.665 111.528 97.2003 110.846 97.5963 109.936C98.007 109.027 98.2123 107.89 98.2123 106.526C98.2123 105.148 98.007 104.011 97.5963 103.116C97.1857 102.207 96.643 101.532 95.9683 101.092C95.2937 100.638 94.553 100.41 93.7463 100.41C92.9103 100.41 92.155 100.638 91.4803 101.092C90.8057 101.547 90.2703 102.229 89.8743 103.138C89.493 104.033 89.3023 105.162 89.3023 106.526ZM112.299 109.166C112.299 110.193 112.145 111.051 111.837 111.74C111.529 112.415 111.119 112.958 110.605 113.368C110.107 113.764 109.557 114.05 108.955 114.226C108.369 114.388 107.782 114.468 107.195 114.468C106.609 114.468 106.007 114.388 105.391 114.226C104.79 114.05 104.233 113.764 103.719 113.368C103.221 112.958 102.817 112.415 102.509 111.74C102.201 111.051 102.047 110.193 102.047 109.166V98.8262H104.005V109.012C104.005 109.79 104.137 110.442 104.401 110.97C104.68 111.498 105.061 111.902 105.545 112.18C106.029 112.459 106.579 112.598 107.195 112.598C107.811 112.598 108.354 112.459 108.823 112.18C109.293 111.902 109.659 111.498 109.923 110.97C110.202 110.442 110.341 109.79 110.341 109.012V98.8262H112.299V109.166ZM114.816 98.8262H116.708V114.226H114.772L114.816 98.8262ZM120.008 98.8262C120.874 98.8262 121.644 99.0022 122.318 99.3542C122.993 99.6915 123.521 100.205 123.902 100.894C124.298 101.584 124.496 102.442 124.496 103.468C124.496 104.466 124.291 105.309 123.88 105.998C123.484 106.688 122.956 107.216 122.296 107.582C121.636 107.934 120.918 108.11 120.14 108.11H115.498V98.8262H120.008ZM116.576 106.416H119.854C120.353 106.416 120.8 106.306 121.196 106.086C121.592 105.866 121.908 105.544 122.142 105.118C122.392 104.678 122.516 104.158 122.516 103.556C122.516 102.896 122.392 102.346 122.142 101.906C121.908 101.466 121.592 101.136 121.196 100.916C120.8 100.696 120.353 100.586 119.854 100.586H116.576V106.416ZM119.216 107.032L121.042 106.79L124.496 113.874V114.226H122.516L119.216 107.032ZM50.8885 141.226V125.826H54.1225L57.5985 138.366H57.8405L61.3165 125.826H64.5505V141.226H62.6365L62.7245 128.158H62.4165L58.8085 141.226H56.6305L53.0005 128.158H52.7145L52.7805 141.226H50.8885ZM66.6431 133.526C66.6431 131.649 66.9438 130.131 67.5451 128.972C68.1464 127.799 68.9311 126.941 69.8991 126.398C70.8818 125.841 71.9451 125.562 73.0891 125.562C74.2331 125.562 75.2891 125.841 76.2571 126.398C77.2398 126.941 78.0318 127.799 78.6331 128.972C79.2344 130.131 79.5351 131.649 79.5351 133.526C79.5351 135.389 79.2344 136.907 78.6331 138.08C78.0318 139.254 77.2398 140.119 76.2571 140.676C75.2891 141.219 74.2331 141.49 73.0891 141.49C71.9451 141.49 70.8818 141.219 69.8991 140.676C68.9311 140.119 68.1464 139.254 67.5451 138.08C66.9438 136.907 66.6431 135.389 66.6431 133.526ZM68.6451 133.526C68.6451 134.89 68.8358 136.027 69.2171 136.936C69.6131 137.846 70.1484 138.528 70.8231 138.982C71.4978 139.422 72.2531 139.642 73.0891 139.642C73.9104 139.642 74.6584 139.422 75.3331 138.982C76.0078 138.528 76.5431 137.846 76.9391 136.936C77.3498 136.027 77.5551 134.89 77.5551 133.526C77.5551 132.148 77.3498 131.011 76.9391 130.116C76.5284 129.207 75.9858 128.532 75.3111 128.092C74.6364 127.638 73.8958 127.41 73.0891 127.41C72.2531 127.41 71.4978 127.638 70.8231 128.092C70.1484 128.547 69.6131 129.229 69.2171 130.138C68.8358 131.033 68.6451 132.162 68.6451 133.526ZM80.2549 125.826H82.2349L85.4029 139.378H86.8549L90.0229 125.826H92.0249V126.222L88.2849 141.204L83.9729 141.226L80.2549 126.222V125.826ZM101.428 125.826V127.586H95.6644V132.822C96.1484 132.617 96.691 132.463 97.2924 132.36C97.9084 132.243 98.5317 132.17 99.1624 132.14C99.793 132.111 100.365 132.14 100.878 132.228V133.9L100.702 134.032C100.306 133.915 99.8077 133.856 99.2064 133.856C98.6197 133.856 98.011 133.908 97.3804 134.01C96.7497 134.113 96.1777 134.282 95.6644 134.516V139.466H101.428V141.226H93.7284V125.826H101.428Z" fill="#2D274B"/>
</svg>
