<svg width="232" height="31" viewBox="0 0 232 31" fill="none" xmlns="http://www.w3.org/2000/svg">
<path d="M13.6759 4.68C14.2306 4.68 14.8026 4.94 15.3919 5.46C15.9813 5.94533 16.2759 6.46533 16.2759 7.02C16.2759 7.54 16.0333 7.93867 15.5479 8.216C15.0973 8.49333 14.5946 8.632 14.0399 8.632C13.4853 8.632 13.0173 8.38933 12.6359 7.904C12.2893 7.384 12.1159 6.82933 12.1159 6.24C12.1159 5.2 12.6359 4.68 13.6759 4.68ZM8.99594 24.024C7.05461 26.104 5.07861 27.5947 3.06794 28.496C2.44394 28.7733 1.94127 28.912 1.55994 28.912C0.51994 28.912 -5.96493e-05 28.392 -5.96493e-05 27.352C-5.96493e-05 26.6933 0.51994 26.156 1.55994 25.74C2.11461 25.532 2.84261 25.116 3.74394 24.492C4.67994 23.868 5.30394 23.4 5.61594 23.088C5.92794 22.776 6.46527 22.204 7.22794 21.372C8.02527 20.54 8.64927 19.916 9.09994 19.5C9.55061 19.0493 10.1573 18.5987 10.9199 18.148C11.7173 17.6973 12.4453 17.472 13.1039 17.472C14.4559 17.472 15.4959 17.9573 16.2239 18.928C16.9519 19.8987 17.3853 20.9733 17.5239 22.152C17.9053 25.272 18.5119 26.832 19.3439 26.832C20.0026 26.832 20.8519 26.6587 21.8919 26.312C22.9319 25.9653 23.5039 25.792 23.6079 25.792C24.6479 25.792 25.1679 26.312 25.1679 27.352C25.1679 28.1147 24.6479 28.6693 23.6079 29.016C21.7359 29.64 20.2106 29.952 19.0319 29.952C17.8879 29.952 16.9519 29.4667 16.2239 28.496C15.4959 27.5253 15.0626 26.4507 14.9239 25.272C14.5426 22.152 13.9359 20.592 13.1039 20.592C12.6533 20.592 12.1333 20.8867 11.5439 21.476C10.9893 22.0307 10.5386 22.4813 10.1919 22.828C9.84527 23.14 9.44661 23.5387 8.99594 24.024ZM56.3639 29.016C54.4919 29.64 53.0359 29.952 51.9959 29.952C50.9559 29.952 50.1412 29.5707 49.5519 28.808C48.9625 28.0453 48.4252 26.7453 47.9399 24.908C47.4892 23.0707 47.1425 22.152 46.8999 22.152C45.9985 22.152 45.0452 23.5387 44.0399 26.312C43.6585 27.352 43.0345 28.3053 42.1679 29.172C41.3012 30.0387 40.2092 30.472 38.8919 30.472C37.6092 30.472 36.6039 29.9 35.8759 28.756C35.1479 27.612 34.7145 26.364 34.5759 25.012C34.4719 23.66 34.2985 22.412 34.0559 21.268C33.8132 20.124 33.4145 19.552 32.8599 19.552C32.4785 19.552 32.2012 19.656 32.0279 19.864C31.8545 20.072 31.6985 20.28 31.5599 20.488C31.4559 20.6613 31.3345 20.852 31.1959 21.06C31.0919 21.2333 30.9532 21.476 30.7799 21.788C30.6412 22.1 30.4679 22.4293 30.2599 22.776C29.5665 23.9893 29.0119 24.8907 28.5959 25.48C27.7639 26.7973 26.5332 27.8027 24.9039 28.496C24.2799 28.7733 23.7772 28.912 23.3959 28.912C22.3559 28.912 21.8359 28.392 21.8359 27.352C21.8359 26.6933 22.3905 26.156 23.4999 25.74C24.6092 25.324 25.3892 24.7347 25.8399 23.972C26.3252 23.1747 26.8625 22.2733 27.4519 21.268C28.0412 20.2627 28.4399 19.5867 28.6479 19.24C28.8905 18.8933 29.1852 18.4773 29.5319 17.992C29.8785 17.472 30.1905 17.1427 30.4679 17.004C31.1959 16.6227 31.9932 16.432 32.8599 16.432C34.2812 16.432 35.3559 17.004 36.0839 18.148C36.8119 19.292 37.2279 20.54 37.3319 21.892C37.4705 23.244 37.6612 24.492 37.9039 25.636C38.1465 26.78 38.5452 27.352 39.0999 27.352C39.6545 27.352 40.1745 26.9187 40.6599 26.052C41.1799 25.1853 41.6305 24.232 42.0119 23.192C42.3932 22.152 42.9999 21.1987 43.8319 20.332C44.6985 19.4653 45.7212 19.032 46.8999 19.032C47.8012 19.032 48.4599 19.2573 48.8759 19.708C49.2919 20.124 49.5865 20.4533 49.7599 20.696C49.9679 20.9387 50.1412 21.3027 50.2799 21.788C50.4532 22.2733 50.5745 22.6373 50.6439 22.88C50.7132 23.088 50.8172 23.4693 50.9559 24.024C51.3719 25.9307 51.7532 26.8667 52.0999 26.832C52.7585 26.832 53.6079 26.6587 54.6479 26.312C55.6879 25.9653 56.2599 25.792 56.3639 25.792C57.4039 25.792 57.9239 26.312 57.9239 27.352C57.9239 28.1147 57.4039 28.6693 56.3639 29.016ZM86.9338 23.296C89.0138 21.2853 90.0538 19.1707 90.0538 16.952C90.0538 16.3973 89.8458 15.912 89.4298 15.496C89.0138 15.08 88.4765 14.872 87.8178 14.872C87.1591 14.872 86.5871 15.1667 86.1018 15.756C85.6165 16.3453 85.3738 17.0907 85.3738 17.992C85.3738 20.0373 85.8938 21.8053 86.9338 23.296ZM68.7858 10.192L68.7338 11.752C68.7338 16.2587 69.2711 19.864 70.3458 22.568C71.6285 25.792 74.2111 27.3867 78.0938 27.352C80.1391 27.352 82.2711 26.6413 84.4898 25.22C82.9991 23.14 82.2538 20.7307 82.2538 17.992C82.2538 16.016 82.8258 14.4907 83.9698 13.416C85.1138 12.3067 86.4138 11.752 87.8698 11.752C89.3258 11.752 90.5738 12.272 91.6138 13.312C92.6538 14.352 93.1738 15.5653 93.1738 16.952C93.1738 19.968 91.8391 22.8107 89.1698 25.48C90.5218 26.3813 91.9431 26.832 93.4338 26.832C94.9591 26.832 96.2418 26.6587 97.2818 26.312C98.3218 25.9653 98.8938 25.792 98.9978 25.792C100.038 25.792 100.558 26.312 100.558 27.352C100.558 28.1147 100.038 28.6693 98.9978 29.016C97.1258 29.64 95.1325 29.952 93.0178 29.952C90.9031 29.952 88.7885 29.1373 86.6738 27.508C83.8658 29.484 81.0058 30.472 78.0938 30.472C71.0911 30.472 67.0351 26.1733 65.9258 17.576C65.7178 15.8427 65.6138 13.9013 65.6138 11.752V10.452C64.8511 10.556 64.3311 10.608 64.0538 10.608C63.0138 10.608 62.4938 10.088 62.4938 9.048C62.4938 8.66667 62.6325 8.33733 62.9098 8.06C63.1871 7.748 63.4471 7.57467 63.6898 7.54C63.9671 7.50533 64.2098 7.47067 64.4178 7.436C64.6605 7.40133 64.8858 7.36667 65.0938 7.332C65.3365 7.29733 65.5791 7.26267 65.8218 7.228C66.0298 4.45467 66.1338 2.704 66.1338 1.976C66.1338 0.658665 66.6538 -1.19209e-06 67.6938 -1.19209e-06C68.7338 -1.19209e-06 69.2538 0.519998 69.2538 1.56C69.2538 2.46133 69.1498 4.29867 68.9418 7.072C71.3685 7.00267 73.5525 6.968 75.4938 6.968C76.5338 6.968 77.0538 7.488 77.0538 8.528C77.0538 9.568 76.5338 10.088 75.4938 10.088C72.0618 10.088 69.8258 10.1227 68.7858 10.192ZM102.394 23.504C102.463 23.4 102.619 22.6547 102.862 21.268C103.139 19.8813 103.451 18.5293 103.798 17.212C104.179 15.86 104.838 14.612 105.774 13.468C106.745 12.324 107.906 11.752 109.258 11.752C111.893 11.752 114.111 12.4453 115.914 13.832C117.751 15.184 118.67 16.9347 118.67 19.084C118.67 21.2333 118.965 23.1573 119.554 24.856C120.143 26.52 120.923 27.352 121.894 27.352C122.553 27.352 123.367 27.144 124.338 26.728C125.898 26.104 126.817 25.792 127.094 25.792C128.134 25.792 128.654 26.312 128.654 27.352C128.654 28.1147 128.134 28.6693 127.094 29.016C125.153 29.9867 123.402 30.472 121.842 30.472C120.317 30.472 119.051 29.8307 118.046 28.548C117.041 27.2307 116.365 25.7747 116.018 24.18C115.706 22.5853 115.55 20.8693 115.55 19.032C115.55 17.8187 114.961 16.8307 113.782 16.068C112.603 15.2707 111.113 14.872 109.31 14.872C107.854 14.872 106.71 17.1947 105.878 21.84C105.531 23.6427 105.289 24.6827 105.15 24.96C104.561 26.1733 102.949 27.352 100.314 28.496C99.69 28.7733 99.1874 28.912 98.806 28.912C97.766 28.912 97.246 28.392 97.246 27.352C97.246 26.6933 97.766 26.156 98.806 25.74C100.851 24.908 102.047 24.1627 102.394 23.504ZM141.916 26.728C141.188 28.1147 140.425 29.0853 139.628 29.64C138.831 30.1947 138.051 30.472 137.288 30.472C136.56 30.472 135.901 30.3853 135.312 30.212C134.757 30.004 134.255 29.7787 133.804 29.536C133.388 29.2587 132.989 28.86 132.608 28.34C132.227 27.7853 131.897 27.3 131.62 26.884C131.377 26.468 131.135 25.8787 130.892 25.116C130.649 24.3533 130.459 23.7467 130.32 23.296C130.216 22.8107 130.077 22.1173 129.904 21.216C129.765 20.3147 129.661 19.656 129.592 19.24C129.245 16.4667 129.072 14.8373 129.072 14.352C129.072 13.312 129.592 12.792 130.632 12.792C131.152 12.792 131.516 12.9133 131.724 13.156C131.967 13.364 132.123 13.728 132.192 14.248C132.261 14.768 132.348 15.5133 132.452 16.484C132.556 17.42 132.643 18.1307 132.712 18.616C132.781 19.1013 132.868 19.76 132.972 20.592C133.111 21.3893 133.232 22.0133 133.336 22.464C133.475 22.88 133.631 23.4 133.804 24.024C133.977 24.648 134.168 25.1333 134.376 25.48C134.584 25.7573 134.827 26.0693 135.104 26.416C135.624 27.0053 136.335 27.3173 137.236 27.352C138.137 27.352 139.195 25.7573 140.408 22.568C141.656 19.3787 142.419 17.0907 142.696 15.704C143.389 13.0693 144.897 11.752 147.22 11.752C148.121 11.752 149.872 12.272 152.472 13.312C153.512 13.728 154.032 14.248 154.032 14.872C154.032 15.912 153.512 16.432 152.472 16.432C152.091 16.432 151.241 16.172 149.924 15.652C148.607 15.132 147.723 14.872 147.272 14.872C146.509 14.872 145.989 15.392 145.712 16.432C145.539 17.264 145.053 18.8413 144.256 21.164C143.459 23.4867 142.679 25.3413 141.916 26.728ZM163.396 16.432C163.396 15.9813 163.535 15.6173 163.812 15.34C164.089 15.028 164.471 14.872 164.956 14.872C165.996 14.872 166.516 15.392 166.516 16.432C166.516 19.1013 167.14 21.5973 168.388 23.92C169.671 26.208 171.127 27.352 172.756 27.352C173.484 27.352 175.079 23.2267 177.54 14.976C177.852 13.936 178.511 13.416 179.516 13.416C180.036 13.416 180.417 13.52 180.66 13.728C180.903 13.936 181.041 14.2133 181.076 14.56C181.145 14.9067 181.249 15.5653 181.388 16.536C181.527 17.5067 181.7 18.4773 181.908 19.448C182.081 20.4187 182.307 21.4587 182.584 22.568C183.208 25.064 183.919 26.312 184.716 26.312C185.375 26.312 185.964 26.2253 186.484 26.052C187.004 25.8787 187.316 25.792 187.42 25.792C188.46 25.792 188.98 26.312 188.98 27.352C188.98 28.1147 188.512 28.652 187.576 28.964C186.64 29.276 185.773 29.432 184.976 29.432C184.179 29.432 183.52 29.3107 183 29.068C182.48 28.7907 182.047 28.4613 181.7 28.08C181.423 27.7333 181.111 27.2133 180.764 26.52C180.383 25.7573 180.019 24.8733 179.672 23.868C179.36 22.8627 179.187 22.2733 179.152 22.1C179.117 21.9267 179.083 21.7533 179.048 21.58C179.048 21.372 179.031 21.216 178.996 21.112C178.927 21.2507 178.857 21.4587 178.788 21.736L178.58 22.36C178.511 22.4987 178.441 22.6547 178.372 22.828C178.337 22.9667 178.164 23.504 177.852 24.44C177.54 25.3413 177.263 26.0693 177.02 26.624C176.777 27.1093 176.448 27.6987 176.032 28.392C175.2 29.7787 174.056 30.472 172.6 30.472C171.179 30.472 169.688 29.7787 168.128 28.392C166.568 27.0053 165.355 25.1507 164.488 22.828C163.829 23.9027 163.032 24.8907 162.096 25.792C160.536 27.3173 159.392 28.2187 158.664 28.496C157.971 28.7733 157.433 28.912 157.052 28.912C156.012 28.912 155.492 28.392 155.492 27.352C155.492 26.6933 156.012 26.156 157.052 25.74C158.092 25.2893 159.409 24.18 161.004 22.412C162.599 20.644 163.396 18.6507 163.396 16.432ZM190.752 27.456C190.718 27.456 190.458 27.5947 189.972 27.872C188.724 28.5653 187.806 28.912 187.216 28.912C186.176 28.912 185.656 28.392 185.656 27.352C185.656 26.6933 186.176 26.156 187.216 25.74C187.39 25.6707 187.806 25.4627 188.464 25.116C189.123 24.7693 189.504 24.5613 189.608 24.492C189.47 24.18 189.4 23.712 189.4 23.088C189.4 19.968 190.492 17.2987 192.676 15.08C194.86 12.8613 196.854 11.752 198.656 11.752C200.459 11.752 201.88 12.1853 202.92 13.052C203.96 13.884 204.48 14.9067 204.48 16.12C204.48 17.2987 204.203 18.3213 203.648 19.188C203.094 20.0547 202.227 20.904 201.048 21.736C199.419 22.9147 197.044 24.284 193.924 25.844C195.311 26.8493 197.235 27.352 199.696 27.352C202.158 27.352 204.584 26.9533 206.976 26.156C207.704 25.9133 208.12 25.792 208.224 25.792C209.264 25.792 209.784 26.312 209.784 27.352C209.784 28.1147 209.264 28.6693 208.224 29.016C205.312 29.9867 202.504 30.472 199.8 30.472C195.952 30.472 192.936 29.4667 190.752 27.456ZM192.52 23.088C198.414 20.1413 201.36 17.9227 201.36 16.432C201.36 15.392 200.494 14.872 198.76 14.872C197.72 14.872 196.42 15.704 194.86 17.368C193.3 18.9973 192.52 20.904 192.52 23.088ZM212.821 30.472C211.781 30.472 211.261 29.952 211.261 28.912C211.261 28.3573 211.347 27.8893 211.521 27.508C212.873 24.492 215.299 20.1933 218.801 14.612C218.593 14.2653 217.293 12.376 214.901 8.944C212.474 5.54667 211.087 3.57067 210.741 3.016C210.394 2.46133 210.221 1.976 210.221 1.56C210.221 0.519998 210.741 -1.19209e-06 211.781 -1.19209e-06C212.231 -1.19209e-06 212.838 0.571999 213.601 1.716C213.843 2.06266 215.022 3.744 217.137 6.76C219.251 9.74133 220.413 11.4053 220.621 11.752L225.821 3.432C226.549 2.184 227.242 1.56 227.901 1.56C228.941 1.56 229.461 2.06266 229.461 3.068C229.461 3.41467 229.183 4.004 228.629 4.836L222.597 14.56C222.839 14.9067 224.122 16.744 226.445 20.072C228.802 23.4 230.154 25.3413 230.501 25.896C230.847 26.4507 231.021 26.936 231.021 27.352C231.021 28.392 230.501 28.912 229.461 28.912C229.045 28.912 228.49 28.392 227.797 27.352C227.554 27.0053 226.375 25.3587 224.261 22.412C222.146 19.4307 220.985 17.7667 220.777 17.42C217.137 23.348 215.005 27.1787 214.381 28.912C213.999 29.952 213.479 30.472 212.821 30.472Z" fill="black"/>
</svg>
