<svg width="1249" height="83" viewBox="0 0 1249 83" fill="none" xmlns="http://www.w3.org/2000/svg">
<g clip-path="url(#clip0_465_120)">
<path d="M783.741 13.5C786.124 13.5 788.484 13.9824 790.685 14.9199C792.886 15.8575 794.886 17.2325 796.57 18.9648C798.255 20.6971 799.591 22.7533 800.503 25.0166C801.397 27.2361 801.864 29.6122 801.882 32.0137L1086.5 31.9854V33.8438H1086.51C1086.51 36.1048 1086.94 38.3437 1087.78 40.4326C1088.62 42.5218 1089.86 44.4215 1091.41 46.0205C1092.97 47.6195 1094.81 48.8876 1096.84 49.7529C1098.88 50.6182 1101.05 51.0635 1103.25 51.0635C1105.45 51.0634 1107.63 50.6181 1109.66 49.7529C1111.69 48.8876 1113.54 47.6194 1115.09 46.0205C1116.65 44.4215 1117.88 42.5218 1118.72 40.4326C1119.55 38.3726 1119.98 36.1666 1120 33.9375H1119.99V31.8652H1248V33.9375H1121.39C1121.38 36.3555 1120.91 38.7489 1120.01 40.9834C1119.1 43.2467 1117.76 45.3029 1116.08 47.0352C1114.4 48.7674 1112.4 50.1425 1110.2 51.0801C1107.99 52.0176 1105.63 52.5 1103.25 52.5C1100.87 52.5 1098.51 52.0176 1096.31 51.0801C1094.11 50.1425 1092.11 48.7675 1090.42 47.0352C1088.74 45.3029 1087.4 43.2466 1086.49 40.9834C1085.61 38.7861 1085.14 36.4354 1085.11 34.0586L800.47 34.0879V32.0146L800.485 32.0137C800.468 29.8012 800.037 27.6124 799.213 25.5674C798.371 23.4782 797.138 21.5785 795.583 19.9795C794.028 18.3805 792.181 17.1124 790.149 16.2471C788.118 15.3818 785.94 14.9365 783.741 14.9365C781.543 14.9366 779.365 15.3819 777.334 16.2471C775.302 17.1124 773.455 18.3805 771.9 19.9795C770.345 21.5785 769.112 23.4782 768.271 25.5674C767.429 27.6563 766.996 29.8952 766.996 32.1562H766.992V33.9814H482.369C482.321 36.2969 481.856 38.5848 480.993 40.7266C480.081 42.9898 478.745 45.0461 477.061 46.7783C475.376 48.5106 473.376 49.8857 471.175 50.8232C468.974 51.7607 466.614 52.2432 464.231 52.2432C461.849 52.2431 459.489 51.7608 457.288 50.8232C455.087 49.8857 453.088 48.5106 451.403 46.7783C449.719 45.046 448.381 42.9899 447.47 40.7266C446.615 38.6047 446.15 36.3393 446.095 34.0459L161.496 34.001V32.1309C161.455 29.9853 161.025 27.8654 160.226 25.8809C159.384 23.7918 158.15 21.8938 156.596 20.2949C155.041 18.696 153.195 17.4269 151.163 16.5615C149.131 15.6962 146.953 15.251 144.754 15.251C142.555 15.2511 140.378 15.6963 138.347 16.5615C136.315 17.4269 134.468 18.6959 132.913 20.2949C131.358 21.8938 130.126 23.792 129.284 25.8809C128.443 27.9699 128.01 30.2095 128.01 32.4707H128.006V34.1211H0V32.0479H126.618C126.669 29.742 127.134 27.4642 127.993 25.3311C128.905 23.0677 130.241 21.0106 131.926 19.2783C133.61 17.546 135.611 16.1719 137.812 15.2344C140.013 14.2971 142.372 13.8145 144.754 13.8145C147.136 13.8145 149.496 14.2969 151.697 15.2344C153.898 16.1719 155.899 17.546 157.584 19.2783C159.269 21.0106 160.604 23.0678 161.516 25.3311C162.36 27.4272 162.824 29.6629 162.888 31.9277L447.481 31.9746V33.5869H447.486C447.486 35.8479 447.919 38.0868 448.761 40.1758C449.602 42.2649 450.836 44.1637 452.391 45.7627C453.946 47.3617 455.793 48.6307 457.824 49.4961C459.856 50.3612 462.033 50.8066 464.231 50.8066C466.43 50.8066 468.608 50.3613 470.64 49.4961C472.671 48.6307 474.518 47.3617 476.073 45.7627C477.628 44.1638 478.862 42.2648 479.703 40.1758C480.544 38.0869 480.977 35.8479 480.978 33.5869H480.979V31.9082H765.603C765.633 29.5427 766.1 27.2036 766.98 25.0166C767.892 22.7533 769.229 20.6971 770.913 18.9648C772.598 17.2325 774.598 15.8575 776.799 14.9199C779 13.9825 781.359 13.5001 783.741 13.5Z" fill="#9787F3"/>
<path d="M783.741 13.5V12H783.741L783.741 13.5ZM790.685 14.9199L791.272 13.5399L791.272 13.5399L790.685 14.9199ZM796.57 18.9648L797.646 17.9191V17.9191L796.57 18.9648ZM800.503 25.0166L801.894 24.4562V24.4561L800.503 25.0166ZM801.882 32.0137L800.382 32.0248L800.393 33.5138L801.882 33.5137L801.882 32.0137ZM1086.5 31.9854H1088V30.4852L1086.5 30.4854L1086.5 31.9854ZM1086.5 33.8438H1085V35.3438H1086.5V33.8438ZM1086.51 33.8438L1088.01 33.8437V32.3438H1086.51V33.8438ZM1087.78 40.4326L1086.39 40.993V40.9931L1087.78 40.4326ZM1091.41 46.0205L1090.33 47.0663V47.0663L1091.41 46.0205ZM1096.84 49.7529L1096.26 51.133V51.133L1096.84 49.7529ZM1103.25 51.0635V52.5635V52.5635V51.0635ZM1109.66 49.7529L1110.25 51.133V51.133L1109.66 49.7529ZM1115.09 46.0205L1116.17 47.0663V47.0663L1115.09 46.0205ZM1118.72 40.4326L1120.11 40.9931V40.993L1118.72 40.4326ZM1120 33.9375L1121.5 33.9455L1121.5 32.4375H1120V33.9375ZM1119.99 33.9375H1118.49V35.4375H1119.99V33.9375ZM1119.99 31.8652V30.3652H1118.49V31.8652H1119.99ZM1248 31.8652H1249.5V30.3652H1248V31.8652ZM1248 33.9375V35.4375H1249.5V33.9375H1248ZM1121.39 33.9375V32.4375H1119.9L1119.89 33.9301L1121.39 33.9375ZM1120.01 40.9834L1121.4 41.5439V41.5438L1120.01 40.9834ZM1116.08 47.0352L1117.16 48.0809V48.0809L1116.08 47.0352ZM1110.2 51.0801L1110.78 52.4601L1110.78 52.4601L1110.2 51.0801ZM1103.25 52.5V54V54V52.5ZM1096.31 51.0801L1095.72 52.4601L1095.72 52.4601L1096.31 51.0801ZM1090.42 47.0352L1089.35 48.0809L1089.35 48.0809L1090.42 47.0352ZM1086.49 40.9834L1085.1 41.5438V41.5439L1086.49 40.9834ZM1085.11 34.0586L1086.61 34.0418L1086.59 32.5584L1085.11 32.5586L1085.11 34.0586ZM800.47 34.0879H798.97V35.588L800.47 35.5879L800.47 34.0879ZM800.47 32.0146L800.376 30.5176L798.97 30.6055V32.0146H800.47ZM800.485 32.0137L800.579 33.5107L801.997 33.4221L801.985 32.0016L800.485 32.0137ZM799.213 25.5674L800.604 25.007L800.604 25.0069L799.213 25.5674ZM795.583 19.9795L796.658 18.9337V18.9337L795.583 19.9795ZM790.149 16.2471L790.737 14.867L790.737 14.867L790.149 16.2471ZM783.741 14.9365V13.4365H783.741L783.741 14.9365ZM777.334 16.2471L776.746 14.867L776.746 14.867L777.334 16.2471ZM771.9 19.9795L770.825 18.9337V18.9337L771.9 19.9795ZM768.271 25.5674L766.879 25.0069L766.879 25.007L768.271 25.5674ZM766.996 32.1562V33.6562H768.496V32.1563L766.996 32.1562ZM766.992 32.1562V30.6562H765.492V32.1562H766.992ZM766.992 33.9814V35.4814H768.492V33.9814H766.992ZM482.369 33.9814V32.4814H480.9L480.869 33.9506L482.369 33.9814ZM480.993 40.7266L482.385 41.2871V41.287L480.993 40.7266ZM477.061 46.7783L478.136 47.8241V47.8241L477.061 46.7783ZM471.175 50.8232L471.763 52.2033L471.763 52.2033L471.175 50.8232ZM464.231 52.2432L464.231 53.7432H464.231V52.2432ZM457.288 50.8232L456.7 52.2033L456.7 52.2033L457.288 50.8232ZM451.403 46.7783L450.328 47.8241V47.8241L451.403 46.7783ZM447.47 40.7266L446.078 41.287V41.287L447.47 40.7266ZM446.095 34.0459L447.594 34.01L447.559 32.5461L446.095 32.5459L446.095 34.0459ZM161.496 34.001H159.996V35.5007L161.496 35.501L161.496 34.001ZM161.496 32.1309H162.996V32.1165L162.996 32.1021L161.496 32.1309ZM160.226 25.8809L161.617 25.3204L161.617 25.3204L160.226 25.8809ZM156.596 20.2949L157.671 19.2492L157.671 19.2492L156.596 20.2949ZM151.163 16.5615L151.751 15.1815L151.751 15.1815L151.163 16.5615ZM144.754 15.251V13.751H144.754L144.754 15.251ZM138.347 16.5615L137.759 15.1815L137.759 15.1815L138.347 16.5615ZM132.913 20.2949L131.838 19.2492L131.838 19.2492L132.913 20.2949ZM129.284 25.8809L127.893 25.3204L127.893 25.3204L129.284 25.8809ZM128.01 32.4707V33.9707H129.51L129.51 32.4707L128.01 32.4707ZM128.006 32.4707V30.9707H126.506V32.4707H128.006ZM128.006 34.1211V35.6211H129.506V34.1211H128.006ZM0 34.1211H-1.5V35.6211H0V34.1211ZM0 32.0479V30.5479H-1.5V32.0479H0ZM126.618 32.0479V33.5479H128.085L128.118 32.0809L126.618 32.0479ZM127.993 25.3311L126.602 24.7706L126.602 24.7706L127.993 25.3311ZM131.926 19.2783L130.85 18.2326V18.2326L131.926 19.2783ZM137.812 15.2344L137.225 13.8543L137.225 13.8543L137.812 15.2344ZM144.754 13.8145V12.3145H144.754L144.754 13.8145ZM151.697 15.2344L152.285 13.8544L152.285 13.8543L151.697 15.2344ZM157.584 19.2783L158.659 18.2326L158.659 18.2326L157.584 19.2783ZM161.516 25.3311L162.907 24.7706L162.907 24.7706L161.516 25.3311ZM162.888 31.9277L161.388 31.9702L161.43 33.4275L162.887 33.4277L162.888 31.9277ZM447.481 31.9746H448.981V30.4749L447.482 30.4746L447.481 31.9746ZM447.481 33.5869H445.981V35.0869H447.481V33.5869ZM447.486 33.5869L448.986 33.5869L448.986 32.0869H447.486V33.5869ZM448.761 40.1758L447.369 40.7362L447.369 40.7362L448.761 40.1758ZM452.391 45.7627L451.315 46.8084V46.8084L452.391 45.7627ZM457.824 49.4961L457.236 50.8761L457.236 50.8762L457.824 49.4961ZM464.231 50.8066L464.231 52.3066H464.231V50.8066ZM470.64 49.4961L471.227 50.8761L471.227 50.8761L470.64 49.4961ZM476.073 45.7627L477.149 46.8084L477.149 46.8084L476.073 45.7627ZM479.703 40.1758L481.094 40.7362L481.095 40.7362L479.703 40.1758ZM480.978 33.5869V32.0869H479.478L479.478 33.5869L480.978 33.5869ZM480.979 33.5869V35.0869H482.479V33.5869H480.979ZM480.979 31.9082V30.4082H479.479V31.9082H480.979ZM765.603 31.9082V33.4082H767.083L767.102 31.9276L765.603 31.9082ZM766.98 25.0166L765.589 24.4561V24.4562L766.98 25.0166ZM770.913 18.9648L769.838 17.9191V17.9191L770.913 18.9648ZM776.799 14.9199L776.211 13.5399L776.211 13.5399L776.799 14.9199ZM783.741 13.5V15C785.921 15 788.081 15.4413 790.097 16.3L790.685 14.9199L791.272 13.5399C788.886 12.5236 786.326 12 783.741 12V13.5ZM790.685 14.9199L790.097 16.2999C792.113 17.1586 793.947 18.4193 795.495 20.0106L796.57 18.9648L797.646 17.9191C795.824 16.0458 793.659 14.5564 791.272 13.5399L790.685 14.9199ZM796.57 18.9648L795.495 20.0106C797.042 21.6018 798.272 23.4928 799.112 25.5771L800.503 25.0166L801.894 24.4561C800.91 22.0138 799.467 19.7924 797.646 17.9191L796.57 18.9648ZM800.503 25.0166L799.112 25.5771C799.935 27.6205 800.365 29.8102 800.382 32.0248L801.882 32.0137L803.382 32.0025C803.363 29.4143 802.859 26.8517 801.894 24.4562L800.503 25.0166ZM801.882 32.0137L801.882 33.5137L1086.5 33.4854L1086.5 31.9854L1086.5 30.4854L801.882 30.5137L801.882 32.0137ZM1086.5 31.9854H1085V33.8438H1086.5H1088V31.9854H1086.5ZM1086.5 33.8438V35.3438H1086.51V33.8438V32.3438H1086.5V33.8438ZM1086.51 33.8438L1085.01 33.8438C1085.01 36.296 1085.48 38.7252 1086.39 40.993L1087.78 40.4326L1089.17 39.8722C1088.4 37.9621 1088.01 35.9135 1088.01 33.8437L1086.51 33.8438ZM1087.78 40.4326L1086.39 40.9931C1087.3 43.2609 1088.64 45.3259 1090.33 47.0663L1091.41 46.0205L1092.49 44.9748C1091.07 43.5171 1089.94 41.7828 1089.17 39.8722L1087.78 40.4326ZM1091.41 46.0205L1090.33 47.0663C1092.03 48.8067 1094.04 50.189 1096.26 51.133L1096.84 49.7529L1097.43 48.3729C1095.58 47.5862 1093.9 46.4323 1092.49 44.9748L1091.41 46.0205ZM1096.84 49.7529L1096.26 51.133C1098.47 52.077 1100.85 52.5635 1103.25 52.5635V51.0635V49.5635C1101.26 49.5635 1099.28 49.1593 1097.43 48.3729L1096.84 49.7529ZM1103.25 51.0635V52.5635C1105.65 52.5634 1108.03 52.0769 1110.25 51.133L1109.66 49.7529L1109.07 48.3729C1107.23 49.1592 1105.25 49.5634 1103.25 49.5635V51.0635ZM1109.66 49.7529L1110.25 51.133C1112.46 50.189 1114.48 48.8066 1116.17 47.0663L1115.09 46.0205L1114.02 44.9747C1112.6 46.4322 1110.92 47.5862 1109.07 48.3729L1109.66 49.7529ZM1115.09 46.0205L1116.17 47.0663C1117.86 45.3259 1119.2 43.2609 1120.11 40.9931L1118.72 40.4326L1117.33 39.8722C1116.56 41.7828 1115.43 43.5171 1114.02 44.9748L1115.09 46.0205ZM1118.72 40.4326L1120.11 40.993C1121.01 38.7563 1121.48 36.3627 1121.5 33.9455L1120 33.9375L1118.5 33.9295C1118.49 35.9704 1118.09 37.9889 1117.33 39.8722L1118.72 40.4326ZM1120 33.9375V32.4375H1119.99V33.9375V35.4375H1120V33.9375ZM1119.99 33.9375H1121.49V31.8652H1119.99H1118.49V33.9375H1119.99ZM1119.99 31.8652V33.3652H1248V31.8652V30.3652H1119.99V31.8652ZM1248 31.8652H1246.5V33.9375H1248H1249.5V31.8652H1248ZM1248 33.9375V32.4375H1121.39V33.9375V35.4375H1248V33.9375ZM1121.39 33.9375L1119.89 33.9301C1119.88 36.1594 1119.45 38.3651 1118.62 40.4229L1120.01 40.9834L1121.4 41.5438C1122.38 39.1328 1122.88 36.5516 1122.89 33.9449L1121.39 33.9375ZM1120.01 40.9834L1118.62 40.4229C1117.78 42.5072 1116.55 44.3982 1115 45.9894L1116.08 47.0352L1117.16 48.0809C1118.98 46.2076 1120.42 43.9862 1121.4 41.5439L1120.01 40.9834ZM1116.08 47.0352L1115 45.9894C1113.46 47.5808 1111.62 48.8415 1109.61 49.7001L1110.2 51.0801L1110.78 52.4601C1113.17 51.4436 1115.33 49.954 1117.16 48.0809L1116.08 47.0352ZM1110.2 51.0801L1109.61 49.7001C1107.59 50.5587 1105.43 51 1103.25 51V52.5V54C1105.84 54 1108.4 53.4765 1110.78 52.4601L1110.2 51.0801ZM1103.25 52.5V51C1101.07 51 1098.91 50.5587 1096.9 49.7L1096.31 51.0801L1095.72 52.4601C1098.11 53.4765 1100.67 54 1103.25 54V52.5ZM1096.31 51.0801L1096.9 49.7001C1094.88 48.8414 1093.05 47.5807 1091.5 45.9894L1090.42 47.0352L1089.35 48.0809C1091.17 49.9542 1093.33 51.4436 1095.72 52.4601L1096.31 51.0801ZM1090.42 47.0352L1091.5 45.9894C1089.95 44.3982 1088.72 42.5071 1087.88 40.4229L1086.49 40.9834L1085.1 41.5439C1086.08 43.9861 1087.53 46.2076 1089.35 48.0809L1090.42 47.0352ZM1086.49 40.9834L1087.88 40.423C1087.07 38.3997 1086.64 36.2334 1086.61 34.0418L1085.11 34.0586L1083.61 34.0754C1083.64 36.6374 1084.14 39.1726 1085.1 41.5438L1086.49 40.9834ZM1085.11 34.0586L1085.11 32.5586L800.47 32.5879L800.47 34.0879L800.47 35.5879L1085.11 35.5586L1085.11 34.0586ZM800.47 34.0879H801.97V32.0146H800.47H798.97V34.0879H800.47ZM800.47 32.0146L800.563 33.5117L800.579 33.5107L800.485 32.0137L800.392 30.5166L800.376 30.5176L800.47 32.0146ZM800.485 32.0137L801.985 32.0016C801.966 29.6025 801.499 27.2277 800.604 25.007L799.213 25.5674L797.821 26.1278C798.574 27.9971 798.969 29.9998 798.985 32.0258L800.485 32.0137ZM799.213 25.5674L800.604 25.0069C799.691 22.7392 798.351 20.6741 796.658 18.9337L795.583 19.9795L794.508 21.0252C795.925 22.4829 797.052 24.2172 797.822 26.1278L799.213 25.5674ZM795.583 19.9795L796.658 18.9337C794.966 17.1933 792.953 15.811 790.737 14.867L790.149 16.2471L789.562 17.6271C791.409 18.4138 793.09 19.5677 794.508 21.0252L795.583 19.9795ZM790.149 16.2471L790.737 14.867C788.521 13.923 786.143 13.4365 783.741 13.4365V14.9365V16.4365C785.737 16.4365 787.715 16.8407 789.562 17.6271L790.149 16.2471ZM783.741 14.9365L783.741 13.4365C781.34 13.4366 778.963 13.9231 776.746 14.867L777.334 16.2471L777.922 17.6271C779.768 16.8408 781.745 16.4366 783.741 16.4365L783.741 14.9365ZM777.334 16.2471L776.746 14.867C774.53 15.811 772.518 17.1933 770.825 18.9337L771.9 19.9795L772.976 21.0252C774.393 19.5678 776.075 18.4138 777.922 17.6271L777.334 16.2471ZM771.9 19.9795L770.825 18.9337C769.133 20.6741 767.793 22.7391 766.879 25.0069L768.271 25.5674L769.662 26.1278C770.431 24.2172 771.558 22.4829 772.976 21.0252L771.9 19.9795ZM768.271 25.5674L766.879 25.007C765.966 27.2748 765.496 29.704 765.496 32.1562L766.996 32.1562L768.496 32.1563C768.496 30.0865 768.893 28.0379 769.662 26.1278L768.271 25.5674ZM766.996 32.1562V30.6562H766.992V32.1562V33.6562H766.996V32.1562ZM766.992 32.1562H765.492V33.9814H766.992H768.492V32.1562H766.992ZM766.992 33.9814V32.4814H482.369V33.9814V35.4814H766.992V33.9814ZM482.369 33.9814L480.869 33.9506C480.826 36.0857 480.396 38.194 479.602 40.1661L480.993 40.7266L482.385 41.287C483.316 38.9755 483.817 36.5081 483.869 34.0123L482.369 33.9814ZM480.993 40.7266L479.602 40.1661C478.762 42.2503 477.533 44.1414 475.985 45.7326L477.061 46.7783L478.136 47.8241C479.958 45.9508 481.401 43.7293 482.385 41.2871L480.993 40.7266ZM477.061 46.7783L475.985 45.7326C474.438 47.3239 472.603 48.5845 470.587 49.4432L471.175 50.8232L471.763 52.2033C474.149 51.1868 476.314 49.6974 478.136 47.8241L477.061 46.7783ZM471.175 50.8232L470.587 49.4432C468.571 50.3018 466.411 50.7432 464.231 50.7432V52.2432V53.7432C466.817 53.7432 469.376 53.2196 471.763 52.2033L471.175 50.8232ZM464.231 52.2432L464.231 50.7432C462.052 50.7431 459.892 50.3019 457.876 49.4432L457.288 50.8232L456.7 52.2033C459.087 53.2197 461.646 53.7431 464.231 53.7432L464.231 52.2432ZM457.288 50.8232L457.876 49.4432C455.86 48.5846 454.026 47.324 452.479 45.7326L451.403 46.7783L450.328 47.8241C452.149 49.6972 454.314 51.1867 456.7 52.2033L457.288 50.8232ZM451.403 46.7783L452.479 45.7326C450.931 44.141 449.701 42.2501 448.861 40.1661L447.47 40.7266L446.078 41.287C447.062 43.7297 448.506 45.951 450.328 47.8241L451.403 46.7783ZM447.47 40.7266L448.861 40.1661C448.074 38.2122 447.645 36.1245 447.594 34.01L446.095 34.0459L444.595 34.0818C444.654 36.554 445.156 38.9972 446.078 41.287L447.47 40.7266ZM446.095 34.0459L446.095 32.5459L161.496 32.501L161.496 34.001L161.496 35.501L446.094 35.5459L446.095 34.0459ZM161.496 34.001H162.996V32.1309H161.496H159.996V34.001H161.496ZM161.496 32.1309L162.996 32.1021C162.951 29.7754 162.485 27.4752 161.617 25.3204L160.226 25.8809L158.834 26.4413C159.565 28.2555 159.959 30.1951 159.996 32.1596L161.496 32.1309ZM160.226 25.8809L161.617 25.3204C160.703 23.0523 159.363 20.9891 157.671 19.2492L156.596 20.2949L155.52 21.3406C156.938 22.7986 158.065 24.5313 158.834 26.4413L160.226 25.8809ZM156.596 20.2949L157.671 19.2492C155.979 17.5092 153.968 16.1257 151.751 15.1815L151.163 16.5615L150.575 17.9415C152.422 18.728 154.103 19.8828 155.52 21.3407L156.596 20.2949ZM151.163 16.5615L151.751 15.1815C149.534 14.2372 147.156 13.751 144.754 13.751V15.251V16.751C146.75 16.751 148.729 17.1551 150.575 17.9416L151.163 16.5615ZM144.754 15.251L144.754 13.751C142.352 13.7511 139.975 14.2375 137.759 15.1815L138.347 16.5615L138.934 17.9416C140.781 17.1552 142.758 16.7511 144.754 16.751L144.754 15.251ZM138.347 16.5615L137.759 15.1815C135.542 16.1256 133.53 17.509 131.838 19.2492L132.913 20.2949L133.988 21.3407C135.406 19.8829 137.088 18.7282 138.934 17.9415L138.347 16.5615ZM132.913 20.2949L131.838 19.2492C130.146 20.9893 128.806 23.0528 127.893 25.3204L129.284 25.8809L130.676 26.4413C131.445 24.5312 132.571 22.7982 133.988 21.3406L132.913 20.2949ZM129.284 25.8809L127.893 25.3204C126.979 27.5885 126.51 30.0184 126.51 32.4707L128.01 32.4707L129.51 32.4707C129.51 30.4006 129.906 28.3514 130.676 26.4413L129.284 25.8809ZM128.01 32.4707V30.9707H128.006V32.4707V33.9707H128.01V32.4707ZM128.006 32.4707H126.506V34.1211H128.006H129.506V32.4707H128.006ZM128.006 34.1211V32.6211H0V34.1211V35.6211H128.006V34.1211ZM0 34.1211H1.5V32.0479H0H-1.5V34.1211H0ZM0 32.0479V33.5479H126.618V32.0479V30.5479H0V32.0479ZM126.618 32.0479L128.118 32.0809C128.165 29.9545 128.593 27.8555 129.385 25.8915L127.993 25.3311L126.602 24.7706C125.674 27.0729 125.173 29.5295 125.119 32.0148L126.618 32.0479ZM127.993 25.3311L129.385 25.8915C130.224 23.807 131.454 21.9152 133.001 20.3241L131.926 19.2783L130.85 18.2326C129.029 20.1061 127.586 22.3284 126.602 24.7706L127.993 25.3311ZM131.926 19.2783L133.001 20.3241C134.548 18.7331 136.384 17.4733 138.4 16.6144L137.812 15.2344L137.225 13.8543C134.839 14.8706 132.673 16.3588 130.85 18.2326L131.926 19.2783ZM137.812 15.2344L138.4 16.6144C140.416 15.7559 142.575 15.3145 144.754 15.3145L144.754 13.8145L144.754 12.3145C142.169 12.3145 139.61 12.8382 137.225 13.8543L137.812 15.2344ZM144.754 13.8145V15.3145C146.933 15.3145 149.094 15.7558 151.109 16.6144L151.697 15.2344L152.285 13.8543C149.899 12.838 147.339 12.3145 144.754 12.3145V13.8145ZM151.697 15.2344L151.109 16.6144C153.126 17.4733 154.962 18.7332 156.509 20.3241L157.584 19.2783L158.659 18.2326C156.837 16.3588 154.671 14.8706 152.285 13.8544L151.697 15.2344ZM157.584 19.2783L156.509 20.324C158.056 21.9149 159.284 23.8067 160.124 25.8915L161.516 25.3311L162.907 24.7706C161.923 22.3288 160.481 20.1063 158.659 18.2326L157.584 19.2783ZM161.516 25.3311L160.124 25.8915C160.902 27.8214 161.329 29.8817 161.388 31.9702L162.888 31.9277L164.387 31.8853C164.318 29.4442 163.818 27.0329 162.907 24.7706L161.516 25.3311ZM162.888 31.9277L162.887 33.4277L447.481 33.4746L447.481 31.9746L447.482 30.4746L162.888 30.4277L162.888 31.9277ZM447.481 31.9746H445.981V33.5869H447.481H448.981V31.9746H447.481ZM447.481 33.5869V35.0869H447.486V33.5869V32.0869H447.481V33.5869ZM447.486 33.5869L445.986 33.5869C445.986 36.0392 446.456 38.4684 447.369 40.7362L448.761 40.1758L450.152 39.6154C449.383 37.7053 448.986 35.6567 448.986 33.5869L447.486 33.5869ZM448.761 40.1758L447.369 40.7362C448.283 43.0042 449.623 45.0683 451.315 46.8084L452.391 45.7627L453.466 44.717C452.048 43.2592 450.922 41.5256 450.152 39.6153L448.761 40.1758ZM452.391 45.7627L451.315 46.8084C453.008 48.5487 455.02 49.932 457.236 50.8761L457.824 49.4961L458.412 48.1161C456.565 47.3295 454.884 46.1748 453.466 44.7169L452.391 45.7627ZM457.824 49.4961L457.236 50.8762C459.453 51.8201 461.83 52.3066 464.231 52.3066L464.231 50.8066L464.231 49.3066C462.236 49.3066 460.258 48.9024 458.412 48.116L457.824 49.4961ZM464.231 50.8066V52.3066C466.633 52.3066 469.011 51.8202 471.227 50.8761L470.64 49.4961L470.052 48.116C468.205 48.9025 466.228 49.3066 464.231 49.3066V50.8066ZM470.64 49.4961L471.227 50.8761C473.444 49.932 475.456 48.5486 477.149 46.8084L476.073 45.7627L474.998 44.7169C473.58 46.1747 471.899 47.3295 470.052 48.1161L470.64 49.4961ZM476.073 45.7627L477.149 46.8084C478.841 45.0683 480.181 43.0041 481.094 40.7362L479.703 40.1758L478.312 39.6153C477.542 41.5255 476.415 43.2592 474.998 44.717L476.073 45.7627ZM479.703 40.1758L481.095 40.7362C482.008 38.4684 482.477 36.0392 482.478 33.5869L480.978 33.5869L479.478 33.5869C479.478 35.6567 479.081 37.7053 478.312 39.6154L479.703 40.1758ZM480.978 33.5869V35.0869H480.979V33.5869V32.0869H480.978V33.5869ZM480.979 33.5869H482.479V31.9082H480.979H479.479V33.5869H480.979ZM480.979 31.9082V33.4082H765.603V31.9082V30.4082H480.979V31.9082ZM765.603 31.9082L767.102 31.9276C767.131 29.7461 767.561 27.5906 768.372 25.5771L766.98 25.0166L765.589 24.4562C764.638 26.8166 764.136 29.3393 764.103 31.8888L765.603 31.9082ZM766.98 25.0166L768.372 25.5771C769.211 23.4928 770.441 21.6018 771.988 20.0106L770.913 18.9648L769.838 17.9191C768.016 19.7924 766.573 22.0138 765.589 24.4561L766.98 25.0166ZM770.913 18.9648L771.988 20.0106C773.536 18.4193 775.371 17.1586 777.387 16.2999L776.799 14.9199L776.211 13.5399C773.825 14.5564 771.659 16.0458 769.838 17.9191L770.913 18.9648ZM776.799 14.9199L777.387 16.3C779.402 15.4414 781.562 15.0001 783.741 15L783.741 13.5L783.741 12C781.156 12.0001 778.597 12.5236 776.211 13.5399L776.799 14.9199Z" fill="#2D274B"/>
<ellipse cx="144.697" cy="32.812" rx="13.5006" ry="13.5" fill="#9787F3"/>
<ellipse cx="463.96" cy="33.812" rx="13.5006" ry="13.5" fill="#9787F3"/>
<ellipse cx="783.916" cy="32.0033" rx="13.5006" ry="13.5" fill="#9787F3"/>
<ellipse cx="1103.49" cy="33.812" rx="13.5006" ry="13.5" fill="#9787F3"/>
</g>
<defs>
<clipPath id="clip0_465_120">
<rect width="1249" height="83" fill=""/>
</clipPath>
</defs>
</svg>
